<?xml version="1.0" encoding="UTF-8"?>
<svg width="24px" height="30px" viewBox="0 0 24 30" version="1.1" xmlns="http://www.w3.org/2000/svg" xmlns:xlink="http://www.w3.org/1999/xlink">
    <title>Contacts Icon</title>
    <defs>
        <polygon id="path-1" points="0.180670622 0.0280835287 12.3990062 0.0280835287 12.3990062 18.6666667 0.180670622 18.6666667"></polygon>
        <polygon id="path-3" points="0.124327146 0.267659487 7.07521818 0.267659487 7.07521818 16.5566267 0.124327146 16.5566267"></polygon>
    </defs>
    <g id="Page-1" stroke="none" stroke-width="1" fill="none" fill-rule="evenodd">
        <g id="Screen-1" transform="translate(-156.000000, -62.000000)">
            <g id="Main-Buttons-1" transform="translate(0.000000, 52.750000)">
                <g id="Contacts-Icon" transform="translate(156.000000, 10.000000)">
                    <g id="Group-3" transform="translate(5.227273, 9.333333)">
                        <mask id="mask-2" fill="white">
                            <use xlink:href="#path-1"></use>
                        </mask>
                        <g id="Clip-2"></g>
                        <path d="M6.29967013,0.0302974359 C7.75285195,0.0302974359 9.20603377,0.0280835287 10.6595143,0.0311589744 C11.5176831,0.0331692308 12.2157481,0.552389744 12.3695792,1.35189744 C12.4290208,1.65975385 12.3845143,1.99058462 12.3570338,2.30849231 C12.2784753,3.22516923 12.1828909,4.14098462 12.0959688,5.05737436 C11.9809688,6.27702564 11.8698519,7.49725128 11.7518649,8.71718974 C11.706761,9.18443077 11.2921636,9.58849231 10.8073714,9.64420513 C10.6589169,9.6614359 10.5071766,9.66516923 10.3575273,9.65827692 C9.87482597,9.63702564 9.54296883,9.90467692 9.50264416,10.3676103 C9.44051429,11.0763692 9.38346234,11.7857026 9.32461818,12.4947487 C9.21768312,13.7853333 9.11104675,15.0759179 9.00411169,16.3665026 C8.96856623,16.7932513 8.93003377,17.2194256 8.89687792,17.6464615 C8.85267013,18.2190974 8.38998182,18.6558974 7.7886961,18.6607795 C6.7979039,18.6688205 5.80651429,18.6688205 4.81542338,18.6596308 C4.19621558,18.6536 3.75204675,18.2348923 3.70156623,17.6366974 C3.52294286,15.514441 3.34491688,13.3921846 3.16629351,11.2702154 C3.13941039,10.9502974 3.11133247,10.6303795 3.08026753,10.3110359 C3.04531948,9.95435897 2.77977403,9.69733333 2.40878701,9.66689231 C2.24838442,9.65368205 2.08618961,9.66 1.92489091,9.65396923 C1.32002078,9.63243077 0.885111688,9.22521026 0.831046753,8.64654359 C0.682592208,7.04810256 0.528761039,5.45052308 0.377020779,3.85236923 C0.309514286,3.13844103 0.219306494,2.42566154 0.182566234,1.71058462 C0.143436364,0.950420513 0.714254545,0.247692308 1.51029351,0.0753846154 C1.64470909,0.0463794872 1.7853974,0.0305846154 1.9233974,0.0302974359 C3.38195584,0.0271384615 4.84081299,0.0282871795 6.29967013,0.0282871795 L6.29967013,0.0302974359 Z" id="Fill-1" fill="#FFFFFF" mask="url(#mask-2)"></path>
                    </g>
                    <g id="Group-6" transform="translate(15.681818, 8.296296)">
                        <mask id="mask-4" fill="white">
                            <use xlink:href="#path-3"></use>
                        </mask>
                        <g id="Clip-5"></g>
                        <path d="M4.80866018,0.287051852 C5.13036745,0.287051852 5.45353836,0.264451596 5.77290382,0.29134304 C6.56707291,0.357999489 7.15223473,1.10466616 7.06705109,1.87679387 C6.96781655,2.77737114 6.89668382,3.68052312 6.81296382,4.58281686 C6.71314382,5.6596189 6.61625109,6.7369931 6.511162,7.81379515 C6.46022745,8.34046692 6.07177836,8.67489349 5.50827836,8.69520511 C5.41548382,8.69863806 5.32268927,8.69406079 5.22989473,8.69463295 C4.88857473,8.6966355 4.62512018,8.90204036 4.58706564,9.23332005 C4.53115473,9.7205129 4.49895473,10.2099944 4.45797291,10.6983315 C4.36430018,11.8134682 4.27150564,12.9283188 4.17900382,14.0434554 C4.131582,14.6118948 4.08767291,15.1803341 4.03673836,15.7482013 C4.00044018,16.1561502 3.62896927,16.5326304 3.20656382,16.5423571 C2.39980745,16.5606662 1.59188018,16.560094 0.784831091,16.5477926 C0.396674727,16.5417849 0.0978001818,16.1964874 0.126194727,15.8117109 C0.193229273,14.9028373 0.269923818,13.994822 0.343691091,13.0865206 C0.375305636,12.6934478 0.411603818,12.300661 0.442340182,11.9075883 C0.470149273,11.5477006 0.657202,11.3257032 1.00964564,11.2084107 C2.01370018,10.8736981 2.67555655,9.99915402 2.76015473,8.96841073 C2.866122,7.67790754 2.99638564,6.3894069 3.11494018,5.10004802 C3.20539291,4.11307484 3.30931109,3.1269599 3.37634564,2.13827024 C3.39830018,1.81986411 3.34473109,1.49115913 3.28589291,1.1741834 C3.19309836,0.672972669 3.49958382,0.27732516 4.02298018,0.269601022 C4.28497109,0.265595913 4.54666927,0.269028863 4.80866018,0.269028863 L4.80866018,0.287051852 Z" id="Fill-4" fill="#FFFFFF" mask="url(#mask-4)"></path>
                    </g>
                    <path d="M4.28733104,25.9251934 C3.62064545,25.9222803 3.2274798,25.5689259 3.17598281,24.9446568 C3.05387019,23.4732694 2.92620699,22.0021733 2.80131908,20.5310772 C2.74303805,19.8497121 2.69092433,19.1677644 2.6255509,18.4869819 C2.59348092,18.1557668 2.33229559,17.936122 1.98168434,17.9198089 C1.82102606,17.9125262 1.65975105,17.9174784 1.49970951,17.9046609 C1.00509171,17.864752 0.634436719,17.5012019 0.590340493,17.0324903 C0.443558652,15.4815763 0.293384793,13.9309536 0.14475276,12.3800397 C0.0969561515,11.8830714 0.0460758912,11.3861031 0.00444658739,10.8888434 C-0.0637021248,10.0734775 0.660339397,9.35395131 1.56785822,9.339386 C2.11366465,9.33064681 2.66008781,9.33210334 3.20589424,9.33909469 C3.77451969,9.34695996 4.11742181,9.7652756 3.97249016,10.2855484 C3.81892428,10.836117 3.89570722,11.3855204 3.94720421,11.9360891 C4.07887616,13.3465935 4.21424849,14.7568066 4.35085427,16.1667284 C4.42486193,16.9287853 4.47420036,17.6940466 4.58860385,18.4505687 C4.741553,19.4596532 5.37524351,20.1270356 6.38051411,20.472816 C6.75332766,20.6009907 6.95777379,20.8235486 6.98799358,21.1975857 C7.07156056,22.2308487 7.15882791,23.2638203 7.24547854,24.2967919 C7.26829756,24.5726589 7.29975081,24.8479432 7.31640254,25.1243927 C7.3450805,25.5910652 7.02468904,25.9152889 6.52914614,25.921989 C6.13813905,25.9272325 5.74744033,25.9228629 5.35643324,25.9228629 C5.00027142,25.9254847 4.64349286,25.9266499 4.28733104,25.9251934 Z" id="Fill-7" fill="#FFFFFF"></path>
                    <path d="M7.31836302,3.62921016 C7.3397328,1.57102791 8.9769429,-0.0219001887 11.0486719,0.00022775281 C13.0209601,0.0212209281 14.6533264,1.67315687 14.6362306,3.63034493 C14.6177101,5.68256966 12.9736617,7.28060421 10.9030724,7.25904365 C8.92764994,7.23833416 7.29841789,5.58810037 7.31836302,3.62921016" id="Fill-9" fill="#FFFFFF"></path>
                    <path d="M2.09090909,4.13837303 C2.12488777,2.35206708 3.91623126,0.906075813 5.950824,1.046466 C6.58975027,1.0904937 6.90032179,1.50418786 6.70629398,2.03196637 C6.19153281,3.43365304 6.34459566,4.77912825 7.18167799,6.05980799 C7.48113498,6.51752986 7.27408731,6.98715858 6.69581457,7.13502517 C4.82476409,7.61379171 2.82033933,6.66567335 2.27541017,5.03221826 C2.17919016,4.74313077 2.15060996,4.43659834 2.09090909,4.13837303" id="Fill-11" fill="#FFFFFF"></path>
                    <path d="M20.9090909,4.15232952 C20.8960073,6.21825345 18.5824429,7.71611061 16.2985559,7.13170258 C15.7356418,6.98767786 15.5205601,6.5251369 15.8109523,6.07921419 C16.6664925,4.76609644 16.8260486,3.39453788 16.2746225,1.96149184 C16.1109179,1.53661889 16.4329022,1.10482168 16.9441202,1.05552091 C18.8613471,0.87105847 20.6343352,2.08862136 20.869521,3.75210696 C20.8883486,3.88505286 20.8963264,4.01910665 20.9090909,4.15232952" id="Fill-13" fill="#FFFFFF"></path>
                </g>
            </g>
        </g>
    </g>
</svg>