<svg xmlns="http://www.w3.org/2000/svg" viewBox="0 0 60.72 72.05"><defs><style>.cls-1{fill:#f1f2f2;}</style></defs><g id="Layer_2" data-name="Layer 2"><g id="Layer_1-2" data-name="Layer 1"><path class="cls-1" d="M30.36,23H42a4.42,4.42,0,0,1,4.56,3.47,9.26,9.26,0,0,1,0,2.52c-.21,2.41-.46,4.82-.7,7.23q-.45,4.82-.91,9.62a2.88,2.88,0,0,1-2.52,2.44,7,7,0,0,1-1.21,0,2,2,0,0,0-2.28,1.86c-.16,1.87-.31,3.73-.47,5.6-.29,3.39-.57,6.79-.86,10.18-.09,1.12-.2,2.24-.28,3.37a2.91,2.91,0,0,1-3,2.66c-2.65,0-5.29,0-7.94,0a2.88,2.88,0,0,1-3-2.69Q22.71,61,22,52.6c-.07-.84-.14-1.69-.23-2.53A1.87,1.87,0,0,0,20,48.38c-.43,0-.86,0-1.29,0a2.89,2.89,0,0,1-2.92-2.65q-.6-6.31-1.21-12.61c-.18-1.88-.42-3.75-.52-5.63a4.33,4.33,0,0,1,3.54-4.3A5.17,5.17,0,0,1,18.69,23H30.36Z"/><path class="cls-1" d="M54.55,23c.87,0,1.76-.06,2.62,0a3.87,3.87,0,0,1,3.53,4.19c-.27,2.37-.46,4.76-.69,7.14-.27,2.84-.54,5.69-.82,8.53a2.6,2.6,0,0,1-2.74,2.33c-.25,0-.5,0-.75,0A1.63,1.63,0,0,0,54,46.58c-.16,1.28-.24,2.58-.36,3.87q-.37,4.41-.76,8.83c-.13,1.5-.24,3-.38,4.5a2.41,2.41,0,0,1-2.26,2.09c-2.2,0-4.4,0-6.6,0A1.82,1.82,0,0,1,41.8,64c.18-2.4.39-4.8.59-7.2.09-1,.19-2.07.27-3.11a2,2,0,0,1,1.54-1.85A6.77,6.77,0,0,0,49,45.88c.29-3.41.64-6.81,1-10.21.24-2.61.53-5.21.71-7.82a10,10,0,0,0-.25-2.55,1.93,1.93,0,0,1,2-2.39c.71,0,1.43,0,2.14,0Z"/><path class="cls-1" d="M13.85,65.91c-.92,0-1.84,0-2.77,0a2.59,2.59,0,0,1-2.87-2.54q-.47-5.73-1-11.44c-.15-1.77-.28-3.54-.45-5.3a1.64,1.64,0,0,0-1.67-1.47c-.41,0-.83,0-1.24,0a2.51,2.51,0,0,1-2.35-2.26Q1,36.83.37,30.79C.25,29.51.12,28.22,0,26.93a3.94,3.94,0,0,1,4-4c1.41,0,2.83,0,4.24,0a1.89,1.89,0,0,1,2,2.45,11.63,11.63,0,0,0-.07,4.28c.35,3.66.69,7.32,1.05,11,.19,2,.32,4,.61,5.92a6.39,6.39,0,0,0,4.64,5.25,2,2,0,0,1,1.57,1.87c.21,2.68.44,5.36.66,8,.06.72.14,1.43.18,2.15a1.88,1.88,0,0,1-2,2.06c-1,0-2,0-3,0Z"/><path class="cls-1" d="M20.13,9.66C20.19,4.18,24.77-.06,30.56,0c5.52.06,10.09,4.45,10,9.66-.05,5.47-4.65,9.72-10.44,9.67C24.63,19.27,20.07,14.88,20.13,9.66Z"/><path class="cls-1" d="M5.25,11.16a8.92,8.92,0,0,1,9.69-8.43,1.91,1.91,0,0,1,1.89,2.68,12.6,12.6,0,0,0,1.2,11,1.87,1.87,0,0,1-1.22,2.93A9.07,9.07,0,0,1,5.71,13.6,22.32,22.32,0,0,1,5.25,11.16Z"/><path class="cls-1" d="M55.4,11.21c0,5.63-5.81,9.71-11.52,8.12a1.85,1.85,0,0,1-1.22-2.87A12.68,12.68,0,0,0,43.82,5.23,1.88,1.88,0,0,1,45.5,2.76a8.87,8.87,0,0,1,9.8,7.36C55.35,10.48,55.37,10.84,55.4,11.21Z"/></g></g></svg>