<svg xmlns="http://www.w3.org/2000/svg" viewBox="0 0 89.07 72.05"><defs><style>.cls-1{fill:#f1f2f2;}</style></defs><g id="Layer_2" data-name="Layer 2"><g id="Layer_1-2" data-name="Layer 1"><path class="cls-1" d="M44.54,23H61.61c3.36,0,6.09,1.37,6.69,3.47a6.3,6.3,0,0,1,0,2.52c-.31,2.41-.68,4.82-1,7.23-.45,3.21-.88,6.42-1.35,9.62-.17,1.23-1.8,2.29-3.69,2.44a14.82,14.82,0,0,1-1.76,0c-1.89-.06-3.19.65-3.35,1.86-.25,1.87-.47,3.73-.7,5.6C56,59.21,55.55,62.61,55.13,66c-.14,1.12-.29,2.24-.42,3.37-.18,1.5-2,2.65-4.34,2.66q-5.82,0-11.64,0c-2.42,0-4.16-1.12-4.36-2.69L32.27,52.6c-.1-.84-.21-1.69-.33-2.53s-1.18-1.61-2.63-1.69c-.63,0-1.27,0-1.9,0-2.36-.06-4.07-1.13-4.28-2.65q-.87-6.31-1.78-12.61c-.26-1.88-.61-3.75-.76-5.63s2.08-3.85,5.2-4.3A10.94,10.94,0,0,1,27.41,23H44.54Z"/><path class="cls-1" d="M80,23c1.29,0,2.58-.06,3.86,0,3.17.18,5.5,2.15,5.17,4.19-.4,2.37-.69,4.76-1,7.14-.4,2.84-.79,5.69-1.2,8.53-.21,1.39-1.76,2.27-4,2.33-.37,0-.74,0-1.11,0-1.37,0-2.42.54-2.57,1.42-.22,1.28-.35,2.58-.52,3.87L77.5,59.28c-.19,1.5-.37,3-.57,4.5-.14,1.07-1.63,2.07-3.32,2.09-3.22,0-6.45,0-9.67,0-1.55,0-2.74-.93-2.63-1.94.27-2.4.57-4.8.87-7.2.13-1,.27-2.07.39-3.11s.86-1.54,2.27-1.85c4-.88,6.65-3.19,7-5.91.42-3.41.94-6.81,1.42-10.21.36-2.61.77-5.21,1-7.82a6.83,6.83,0,0,0-.36-2.55c-.37-1.32.86-2.37,2.95-2.39,1,0,2.09,0,3.13,0Z"/><path class="cls-1" d="M20.31,65.91c-1.35,0-2.7,0-4,0-2.53,0-4-.92-4.22-2.54q-.69-5.73-1.42-11.44c-.22-1.77-.42-3.54-.66-5.3-.13-.86-1.12-1.43-2.45-1.47-.6,0-1.22,0-1.82,0-1.88-.11-3.28-1-3.45-2.26q-.84-6-1.69-12.07C.37,29.51.17,28.22,0,26.93c-.26-2.12,2.48-4,5.93-4q3.1,0,6.21,0c2.15,0,3.45,1.11,2.9,2.45A8,8,0,0,0,15,29.64q.75,5.49,1.53,11c.28,2,.47,4,.9,5.92.58,2.62,3,4.35,6.8,5.25,1.41.33,2.18.91,2.3,1.87.31,2.68.65,5.36,1,8,.09.72.21,1.43.28,2.15.1,1.21-1.11,2-3,2.06-1.48,0-3,0-4.45,0Z"/><path class="cls-1" d="M29.52,9.66C29.61,4.18,36.33-.06,44.83,0c8.1.06,14.8,4.45,14.72,9.66-.07,5.47-6.82,9.72-15.32,9.67C36.13,19.27,29.44,14.88,29.52,9.66Z"/><path class="cls-1" d="M7.7,11.16c.12-4.87,6.72-8.82,14.21-8.43,2.35.12,3.5,1.24,2.78,2.68-1.89,3.83-1.33,7.5,1.75,11,1.11,1.25.34,2.53-1.79,2.93-6.89,1.31-14.27-1.28-16.27-5.73A15.28,15.28,0,0,1,7.7,11.16Z"/><path class="cls-1" d="M81.26,11.21c-.05,5.63-8.52,9.71-16.89,8.12-2.07-.39-2.85-1.65-1.79-2.87,3.14-3.58,3.72-7.32,1.7-11.23-.6-1.16.58-2.33,2.45-2.47,7-.5,13.52,2.82,14.39,7.36C81.19,10.48,81.21,10.84,81.26,11.21Z"/></g></g></svg>