<svg xmlns="http://www.w3.org/2000/svg" viewBox="0 0 76.17 95.9"><defs><style>.cls-1,.cls-2{fill:#f1f2f2;}.cls-1{stroke:#f1f2f2;stroke-miterlimit:10;}</style></defs><g id="Layer_2" data-name="Layer 2"><g id="Layer_1-2" data-name="Layer 1"><path class="cls-1" d="M38.09,30.5c4.87,0,9.73,0,14.6,0a5.6,5.6,0,0,1,5.72,4.59,12.89,12.89,0,0,1,0,3.34c-.26,3.19-.58,6.38-.87,9.57-.39,4.21-.76,8.42-1.15,12.64A3.86,3.86,0,0,1,53.26,64a10,10,0,0,1-1.64.06,2.69,2.69,0,0,0-2.81,2.47c-.21,2.47-.4,4.94-.59,7.41L47.14,87.39c-.12,1.48-.24,3-.35,4.45a3.74,3.74,0,0,1-3.71,3.54q-5,0-10,0a3.69,3.69,0,0,1-3.73-3.56q-.9-11.09-1.79-22.17c-.09-1.1-.18-2.21-.29-3.31a2.49,2.49,0,0,0-2.25-2.27c-.53,0-1.08,0-1.62,0a3.84,3.84,0,0,1-3.66-3.52Q19,52.15,18.26,43.81c-.22-2.48-.53-5-.65-7.46a5.67,5.67,0,0,1,4.45-5.69,6.42,6.42,0,0,1,1.38-.16c4.88,0,9.77,0,14.65,0Z"/><path class="cls-2" d="M68.43,30.4c1.1,0,2.2-.08,3.29,0A5,5,0,0,1,76.14,36c-.34,3.14-.58,6.3-.87,9.46-.34,3.76-.67,7.53-1,11.29a3.31,3.31,0,0,1-3.42,3.08h-.95a2.09,2.09,0,0,0-2.2,1.88c-.19,1.7-.3,3.42-.44,5.12q-.48,5.85-1,11.7c-.17,2-.32,4-.49,6A3.09,3.09,0,0,1,63,87.22c-2.75.07-5.51.06-8.27,0a2.36,2.36,0,0,1-2.25-2.57c.23-3.18.49-6.35.74-9.53.11-1.37.24-2.75.34-4.12a2.59,2.59,0,0,1,1.94-2.44,8.89,8.89,0,0,0,6-7.83c.36-4.51.81-9,1.21-13.53.31-3.45.66-6.89.89-10.35a13.73,13.73,0,0,0-.3-3.37,2.51,2.51,0,0,1,2.51-3.16c.9,0,1.79,0,2.69,0Z"/><path class="cls-2" d="M17.37,87.27c-1.16,0-2.31,0-3.47,0a3.32,3.32,0,0,1-3.6-3.36q-.6-7.59-1.22-15.16c-.18-2.34-.35-4.68-.57-7a2.1,2.1,0,0,0-2.08-2c-.52,0-1,0-1.57,0a3.25,3.25,0,0,1-2.95-3c-.47-5.32-1-10.64-1.44-16C.31,39.07.15,37.36,0,35.65a5.09,5.09,0,0,1,5.07-5.32c1.77,0,3.55,0,5.32,0a2.47,2.47,0,0,1,2.48,3.25,16.12,16.12,0,0,0-.08,5.67q.64,7.26,1.31,14.52c.24,2.62.4,5.24.77,7.84a8.29,8.29,0,0,0,5.81,6.94,2.68,2.68,0,0,1,2,2.49c.27,3.55.56,7.09.84,10.64.07.95.17,1.89.23,2.84a2.45,2.45,0,0,1-2.56,2.74c-1.26,0-2.53,0-3.8,0Z"/><path class="cls-2" d="M25.25,12.79a12.84,12.84,0,1,1,12.58,12.8A12.79,12.79,0,0,1,25.25,12.79Z"/><path class="cls-2" d="M6.58,14.77A11.43,11.43,0,0,1,18.74,3.61a2.53,2.53,0,0,1,2.38,3.56,17.47,17.47,0,0,0,1.49,14.54,2.51,2.51,0,0,1-1.53,3.89A11.28,11.28,0,0,1,7.16,18,31.14,31.14,0,0,1,6.58,14.77Z"/><path class="cls-2" d="M69.49,14.84A11.31,11.31,0,0,1,55.05,25.6a2.48,2.48,0,0,1-1.53-3.8A17.63,17.63,0,0,0,55,6.93a2.48,2.48,0,0,1,2.1-3.27,11.24,11.24,0,0,1,12.3,9.73C69.43,13.87,69.45,14.36,69.49,14.84Z"/></g></g></svg>