<?xml version="1.0" encoding="UTF-8"?>
<svg width="279px" height="272px" viewBox="0 0 279 272" version="1.1" xmlns="http://www.w3.org/2000/svg" xmlns:xlink="http://www.w3.org/1999/xlink">
    <title>Drop Files</title>
    <g id="Page-1" stroke="none" stroke-width="1" fill="none" fill-rule="evenodd" opacity="0.988885789">
        <g id="Screen-2" transform="translate(-83.000000, -248.000000)">
            <g id="Drop-Files" transform="translate(84.000000, 249.000000)">
                <g id="Illustration">
                    <ellipse id="Oval" stroke="#598392" stroke-width="2" cx="138.5" cy="135" rx="138.5" ry="135"></ellipse>
                    <ellipse id="Oval" stroke="#598392" cx="138.5" cy="135" rx="111.23622" ry="108.425197"></ellipse>
                    <g id="Group-20" transform="translate(98.149606, 117.992126)" fill="#598392">
                        <path d="M5.6150319,60.7172908 L38.0583931,60.7172908 L38.0583931,40.307129 L5.6150319,40.307129 L5.6150319,60.7172908 Z M21.8120826,65.8656424 C16.2029302,65.8656424 10.5937778,65.8716594 4.98462532,65.8601725 C3.98887615,65.8579845 2.99019485,65.8147716 1.99855065,65.7327218 C1.07845027,65.6561419 0.209955261,64.7803971 0.1800476,63.9194211 C0.117300155,62.1515214 0.0586576835,60.3830746 0.0510341621,58.6140809 C0.0217129262,51.947808 0.0135029801,45.281535 3.55271368e-15,38.6158091 C-0.000571213175,38.2646359 0.015848679,37.9134628 0.0404785172,37.5639306 C0.133133623,36.2686377 1.03270914,35.2993561 2.43309137,35.2205883 C4.48733716,35.1046245 6.55096575,35.0761806 8.60990294,35.0787402 C18.7163465,35.0914966 28.8233766,35.1248635 38.9298202,35.1571364 C39.6968637,35.1593244 40.4656665,35.2041783 41.2332965,35.2397332 C42.5973204,35.3031851 43.5133158,36.153768 43.5320814,37.4277279 C43.5772361,40.6003203 43.6259093,43.7729127 43.6220472,46.945505 C43.6141808,52.4521408 43.566094,57.9587765 43.542637,63.4654122 C43.5397049,64.1896385 43.3022029,64.7765681 42.7146053,65.2880118 C42.2026565,65.7343628 41.6115404,65.7945326 40.9934488,65.8027376 C37.8877435,65.8448565 34.7808653,65.8825994 31.6739871,65.8979154 C28.3864902,65.9132313 25.0989932,65.9006504 21.8120826,65.9006504 L21.8120826,65.8656424 Z" id="Fill-1"></path>
                        <path d="M55.4876132,19.1211563 C55.2145516,18.8345193 54.9638721,18.5563794 54.6986443,18.2952339 C53.7591559,17.3707446 52.8118337,16.454186 51.8729048,15.5291303 C51.6949671,15.3535226 51.5243036,15.1643196 51.3793796,14.9603881 C50.946286,14.3502932 51.1639519,13.6065098 51.8796194,13.4303357 C53.5258225,13.0241722 55.1798594,12.6451996 56.8406108,12.3036144 C59.5091162,11.7552654 62.1843361,11.2448703 64.8573178,10.7208797 C65.0402915,10.6851917 65.227182,10.6698969 65.4123938,10.643839 C66.0631532,10.5537692 66.5415705,10.9049845 66.5231053,11.5779583 C66.4912108,12.7262057 66.4218263,13.8784184 66.2914506,15.0193016 C65.9870541,17.6817401 65.6406912,20.3390802 65.3032811,22.9975533 C65.1902515,23.8886205 65.0346959,24.7740229 64.9350956,25.666223 C64.8718662,26.2360981 63.9161507,26.7481927 63.4377334,26.3159713 C62.4971259,25.463991 61.5274216,24.6442998 60.5683488,23.8132792 C60.1542801,23.4535667 59.7256629,23.1102821 59.3239043,22.7364078 C59.0547596,22.4860253 58.8701073,22.5319098 58.631738,22.7896565 C56.6906508,24.8873181 54.7394916,26.9753497 52.7916898,29.0662135 C51.8494036,30.0773737 50.9166297,31.0975974 49.9614738,32.0957286 C48.7690677,33.3414099 47.1541995,33.2128198 46.2091155,31.8164558 C45.7016015,31.0664412 45.6450867,30.3447505 46.1811379,29.6202273 C46.8626727,28.7002699 47.5917695,27.8109021 48.3572371,26.9611878 C50.5652308,24.5117444 52.8023213,22.0883589 55.0271016,19.6536439 C55.1737043,19.4927647 55.3124733,19.3239548 55.4876132,19.1211563" id="Fill-3"></path>
                        <path d="M77.4291339,14.2401136 C77.3707426,15.0929476 77.3554627,15.8488302 77.2588716,16.5934394 C77.136632,17.5325151 76.5783681,18.0657477 75.8132792,18.0708661 C75.0842074,18.0764575 74.4741008,17.5567529 74.3398556,16.674608 C74.0981049,15.0856199 74.086645,13.484231 74.3660498,11.8963701 C74.5035693,11.112304 75.0547389,10.6472755 75.7428823,10.6303654 C76.4501257,10.6128916 77.0897007,11.112304 77.216306,11.9025705 C77.3445484,12.7035468 77.3680141,13.5231243 77.4291339,14.2401136" id="Fill-4"></path>
                        <path d="M77.306597,40.4213547 C77.306597,40.9888895 77.3120674,41.5564243 77.3055029,42.1239591 C77.2956562,42.9233838 76.2819918,43.7415184 75.525983,43.5561199 C74.9138456,43.4058734 74.4751199,43.0452819 74.3651649,42.3739919 C74.0927392,40.7139101 74.0839865,39.0470247 74.3646179,37.3897777 C74.4997366,36.592054 75.0407588,36.150953 75.7519104,36.1418815 C76.5046369,36.1322431 77.1206035,36.5897861 77.2267292,37.403385 C77.3574717,38.3989805 77.3667713,39.411585 77.4291339,40.417386 C77.3881059,40.4185199 77.3470779,40.4202208 77.306597,40.4213547" id="Fill-5"></path>
                        <path d="M77.4291339,27.0103177 C77.3948859,27.6922613 77.3851823,28.5399591 77.300704,29.3796272 C77.2282125,30.0988512 76.6910904,30.6632183 76.0614987,30.8014423 C75.4678674,30.9310632 74.5397478,30.5467889 74.2166754,30.0231434 C74.163591,29.9376854 74.1584538,29.8120793 74.1584538,29.7048266 C74.157883,28.1872296 74.1533166,26.6702062 74.1704406,25.1531828 C74.1772902,24.5314613 74.3005829,23.9590646 74.9027761,23.5908495 C75.8697102,23.0000993 77.3594963,23.7692216 77.3223944,24.8371602 C77.2984208,25.5047652 77.3840407,26.1758115 77.4291339,27.0103177" id="Fill-6"></path>
                        <path d="M16.3580073,14.3557076 C16.3580073,15.1283004 16.3585932,15.9008931 16.3580073,16.6740515 C16.3568356,17.4952848 15.3204729,18.2429918 14.4903281,18.0359867 C13.7586056,17.8538674 13.3180489,17.4115779 13.233687,16.6949783 C13.042701,15.0621266 13.0134086,13.4258814 13.2922717,11.7969889 C13.4041684,11.1448663 13.8253921,10.7698817 14.4920857,10.6561985 C15.1681527,10.5413842 15.7141618,10.8128663 16.1476884,11.2743859 C16.2800897,11.4152172 16.3064528,11.684437 16.3105538,11.8959668 C16.328715,12.7155033 16.3181698,13.5356054 16.3181698,14.3557076 L16.3580073,14.3557076 Z" id="Fill-7"></path>
                        <path d="M74.6784426,53.1496063 C74.308821,53.1308104 73.9380445,53.1262538 73.5701556,53.0903707 C72.6992349,53.0055042 71.9952214,52.3362553 71.9767403,51.594101 C71.9582593,50.8320116 72.6489895,50.0596699 73.5158674,49.9708164 C73.9426647,49.9269592 74.0887807,49.7401391 74.1679028,49.3664989 C74.3244145,48.6311794 74.6374377,48.0109138 75.4927649,47.8576986 C76.3088199,47.7118877 77.2559751,48.2746264 77.3431826,49.0691815 C77.4332779,49.8831021 77.4621546,50.7180969 77.3830325,51.5308783 C77.2796539,52.5937025 76.7587186,53.0248697 75.6931691,53.1074579 C75.3570446,53.1336582 75.0174548,53.1120144 74.6795976,53.1120144 C74.6790201,53.1245451 74.6790201,53.1370757 74.6784426,53.1496063" id="Fill-8"></path>
                        <path d="M74.9027892,0 C75.3341673,0.0371155645 75.7898975,0.0422546427 76.2311323,0.122766867 C76.8416715,0.235255578 77.2968218,0.616689379 77.3524835,1.22367161 C77.4319174,2.10359599 77.4632271,3.00179265 77.3797346,3.879433 C77.2956622,4.77020655 76.6288815,5.31152278 75.8426601,5.31496063 C75.0152722,5.31780388 74.3676252,4.80218304 74.2122363,3.91255151 C74.1113495,3.33868778 73.754187,3.19993267 73.2590299,3.08573093 C72.1057892,2.82021189 71.6303455,1.65992225 72.2490021,0.710334804 C72.4820854,0.352883367 72.7928632,0.141039145 73.2381567,0.118769806 C73.7860765,0.0913613895 74.3328367,0.041683634 74.9027892,0" id="Fill-9"></path>
                        <path d="M13.1127044,2.66327211 C13.1127044,2.35899022 13.1080662,2.05413312 13.1132842,1.74985123 C13.1347362,0.65581689 13.6553822,0.0811900226 14.7540727,0.0276962301 C15.6399825,-0.0160191272 16.5305305,0.00296254113 17.4181797,0.0115905722 C17.7950392,0.0150417846 18.4994767,0.905454588 18.5342637,1.38459791 C18.5945612,2.22899455 18.1173991,2.88012329 17.285989,3.08662084 C17.1926437,3.11020412 17.0969794,3.15219387 17.0036342,3.14874266 C16.4116748,3.12918579 16.2464364,3.45072375 16.2162877,3.98623687 C16.1733837,4.76103406 15.590121,5.28331754 14.8294446,5.31322805 C13.9765825,5.34774017 13.2854801,4.86399523 13.1724222,4.10012688 C13.1016886,3.62731078 13.1121247,3.14299064 13.0866142,2.66442252 C13.0953109,2.66384731 13.1040077,2.66384731 13.1127044,2.66327211" id="Fill-10"></path>
                        <path d="M50.7366533,53.1347644 C50.0304246,53.1347644 49.3223866,53.1009506 48.6191733,53.1432178 C47.7380459,53.1961928 47.3767897,52.6027607 47.0390544,52.0465238 C46.7079531,51.4998675 46.9920127,51.0033683 47.3954858,50.5474457 C47.7790566,50.1140655 48.2120816,49.9348524 48.8290517,49.9635942 C50.1872303,50.0255861 51.5496306,50.0216412 52.9102216,50.0385481 C53.6707292,50.0475651 54.0977232,50.452767 54.3841951,51.0619789 C54.6736826,51.6779535 54.511449,52.1581093 54.017511,52.632066 C53.6381619,52.9972549 53.2570034,53.1821037 52.7021525,53.1449085 C52.0502026,53.1009506 51.3922218,53.1347644 50.7366533,53.1347644" id="Fill-11"></path>
                        <path d="M16.3512483,27.1510598 C16.3512483,27.9014066 16.3695943,28.6517533 16.3469676,29.4015273 C16.3157794,30.4296742 15.317147,31.0648914 14.2738727,30.7424142 C13.4324041,30.4812247 13.0752692,30.035599 13.0868883,29.2165181 C13.1082919,27.701505 13.1137957,26.1859191 13.1822874,24.6726244 C13.2171447,23.9056669 13.9736103,23.3535033 14.7936753,23.3872976 C15.6406477,23.4228102 16.3157794,23.9961667 16.3426869,24.7573964 C16.3708174,25.5541386 16.3494137,26.353172 16.3494137,27.1510598 L16.3512483,27.1510598 Z" id="Fill-12"></path>
                        <path d="M62.6482221,50.0570066 C63.4324635,50.0570066 64.2179292,50.0344124 65.0021706,50.0632201 C65.9064051,50.0959817 66.5143299,50.7054618 66.5235131,51.5318468 C66.5326962,52.4118932 65.9608918,53.0473567 65.041352,53.0772941 C63.4557275,53.1281312 61.8688785,53.1501606 60.2820295,53.1496063 C59.2969831,53.1490309 58.5182517,51.7001741 59.0765875,50.9025968 C59.4702387,50.3405646 59.9330696,49.8677797 60.8066937,49.9762322 C61.4109452,50.0507932 62.033563,49.9903536 62.6482221,49.9903536 L62.6482221,50.0570066 Z" id="Fill-13"></path>
                        <path d="M62.5452976,3.18897638 C61.7826523,3.1515406 61.020007,3.12677539 60.2591891,3.07206155 C59.5026352,3.01792365 58.8819199,2.30261224 58.8897638,1.53143512 C58.8983667,0.728581575 59.4532947,0.121545965 60.2731993,0.0967807555 C61.9501662,0.0455225305 63.6289605,0.0155739046 65.3077549,0 C66.0241054,-0.00631162971 66.7428925,1.26132155 66.4608599,1.98008858 C66.1629897,2.73917105 65.5989245,3.14866092 64.7345526,3.15672401 C64.0048009,3.16421117 63.2756584,3.15845182 62.5465159,3.15845182 C62.5459067,3.16881865 62.5452976,3.17860955 62.5452976,3.18897638" id="Fill-14"></path>
                        <path d="M26.5245479,3.18897638 L24.4928521,3.18897638 C23.7021742,3.18897638 23.0932124,2.72208123 22.9358061,1.95893281 C22.7638139,1.12409109 23.2384638,0.0783170551 24.3931817,0.0842421205 C25.9490122,0.0913521989 27.5048427,0.0243989602 29.0612809,0.000106192132 C29.8270412,-0.0117439386 30.6523607,0.970631901 30.5216952,1.71956016 C30.3430178,2.74637399 29.8805229,3.1457234 28.8096739,3.16468361 C28.0481678,3.17831126 27.286054,3.16705364 26.5245479,3.16705364 L26.5245479,3.18897638 Z" id="Fill-15"></path>
                        <path d="M50.5486601,3.18897638 L48.4654584,3.18897638 C47.5566792,3.18897638 46.82844,2.40257414 46.8983461,1.49646334 C46.9658207,0.618798138 47.4843415,0.122185419 48.4064941,0.0961102877 C49.945644,0.0528492751 51.4854017,0.025588911 53.0245516,0.000106396772 C53.7102392,-0.0111533188 54.6038215,0.873623281 54.5223657,1.53853912 C54.3983584,2.54954306 54.0172182,3.18719853 52.8342855,3.16882741 C52.072613,3.15697508 51.3103326,3.16645695 50.5486601,3.16645695 L50.5486601,3.18897638 Z" id="Fill-16"></path>
                        <path d="M39.6434828,3.16985218 C38.9326354,3.16985218 38.2181427,3.12568108 37.5127634,3.18339798 C36.9556292,3.22933593 36.6287609,2.98786725 36.340169,2.59503895 C35.9434311,2.0532068 35.8832825,1.47957147 36.1536475,0.874721886 C36.4161142,0.28636285 36.9149225,0.0949547556 37.543749,0.0872984319 C39.0486798,0.0678631484 40.5530029,0.0248699456 42.0579336,0.000134130258 C42.7444785,-0.0116448294 43.5701551,0.754576497 43.6175449,1.42892194 C43.6837691,2.37889504 43.0130209,3.11684686 42.0287706,3.14040478 C41.2340797,3.15925112 40.4387813,3.14452742 39.6434828,3.14452742 L39.6434828,3.16985218 Z" id="Fill-17"></path>
                    </g>
                </g>
                <text id="Drop-Files-Here-to-P" font-family="Calibri" font-size="14" font-weight="normal" line-spacing="14" letter-spacing="-0.6363637" fill="#598392">
                    <tspan x="69.25" y="94.0769231">Drop Files Here to Process</tspan>
                </text>
            </g>
        </g>
    </g>
</svg>