<svg xmlns="http://www.w3.org/2000/svg" viewBox="0 0 91.74 78.91"><defs><style>.cls-1{fill:#f1f2f2;}</style></defs><g id="Layer_2" data-name="Layer 2"><g id="Layer_1-2" data-name="Layer 1"><path class="cls-1" d="M25.48,47.06C18.14,42.49,14,36,13.21,27.4A24.13,24.13,0,0,1,20,8.17a25,25,0,0,1,36.63-.4,24.21,24.21,0,0,1,7,20.9A24.66,24.66,0,0,1,51.56,47c1.36.57,2.73,1.08,4,1.72a39,39,0,0,1,19.6,21c.83,2,1.32,4.13,2,6.2a2.21,2.21,0,0,1-.49,2,1.88,1.88,0,0,1-1.82,1q-36.33,0-72.66,0A3.29,3.29,0,0,1,0,77.21a1.08,1.08,0,0,1,0-.4A39,39,0,0,1,13.77,53.72,37.24,37.24,0,0,1,25,47.25C25.18,47.2,25.3,47.14,25.48,47.06Z"/><path class="cls-1" d="M72.84,46.41H65.23A4.3,4.3,0,0,1,64,46.28a2.34,2.34,0,0,1-1.87-2,17.81,17.81,0,0,1,0-3.65,2.57,2.57,0,0,1,2.69-2.3c2.43,0,4.86,0,7.29,0h.72V30.63a2.79,2.79,0,0,1,3.08-3.1c.76,0,1.53,0,2.29,0A2.7,2.7,0,0,1,81,30.32c0,2.42,0,4.85,0,7.28v.71h7.87a2.72,2.72,0,0,1,2.92,2.89v2.23a2.72,2.72,0,0,1-2.95,3c-2.36,0-4.71,0-7.06,0H81v.65c0,2.39,0,4.77,0,7.16a2.75,2.75,0,0,1-3,3H75.81a2.74,2.74,0,0,1-3-3q0-3.53,0-7.05Z"/></g></g></svg>