<?xml version="1.0" encoding="UTF-8"?>
<svg width="27px" height="26px" viewBox="0 0 27 26" version="1.1" xmlns="http://www.w3.org/2000/svg" xmlns:xlink="http://www.w3.org/1999/xlink">
    <title>Invite Icon</title>
    <defs>
        <polygon id="path-1" points="0 0.0273417722 22.6335318 0.0273417722 22.6335318 24 0 24"></polygon>
    </defs>
    <g id="Page-1" stroke="none" stroke-width="1" fill="none" fill-rule="evenodd">
        <g id="Screen-1" transform="translate(-253.000000, -64.000000)">
            <g id="Main-Buttons-1" transform="translate(0.000000, 52.750000)">
                <g id="Invite-Icon" transform="translate(253.000000, 12.250000)">
                    <g id="Group-3">
                        <mask id="mask-2" fill="white">
                            <use xlink:href="#path-1"></use>
                        </mask>
                        <g id="Clip-2"></g>
                        <path d="M7.46193462,14.3254177 C5.31439615,12.9352405 4.08744053,10.9493165 3.86864467,8.3521519 C3.68001746,6.11164557 4.37858254,4.14729114 5.85596716,2.51012658 C8.81454408,-0.768455696 13.6081358,-0.791240506 16.5837009,2.38891139 C18.2336033,4.1524557 18.9556003,6.28481013 18.6407334,8.7364557 C18.327624,11.1741266 17.1094553,13.024557 15.1010441,14.3166076 C15.4988015,14.4909873 15.9006595,14.6462278 16.2852364,14.8391392 C18.9945559,16.1998481 20.8875648,18.3589367 22.0272364,21.2319494 C22.2682926,21.8395443 22.412692,22.4881519 22.6089346,23.1151899 C22.6830382,23.3521519 22.5764228,23.5250127 22.4654139,23.7118481 C22.3385885,23.9248101 22.1810086,24.0004557 21.9317512,24.0001528 C14.8383133,23.9919494 7.74487544,23.9934684 0.651437574,23.9931646 C0.452851775,23.9931646 0.0539227811,23.6811646 0.00442278107,23.482481 C-0.00495,23.4454177 0.0020795858,23.4019747 0.00940207101,23.3633924 C0.540135799,20.5241013 1.90328964,18.1957975 4.03413284,16.3465823 C5.02032515,15.4907848 6.12397012,14.8376203 7.33452337,14.3822278 C7.37377189,14.3676456 7.41155592,14.3482025 7.46193462,14.3254177" id="Fill-1" fill="#FFFFFF" mask="url(#mask-2)"></path>
                    </g>
                    <path d="M21.0493443,14.3269872 C20.2287334,14.3269872 19.4405564,14.328571 18.6520645,14.3254034 C18.5267371,14.3250866 18.3957417,14.3225525 18.2767121,14.2877088 C17.9570958,14.1948977 17.7225006,13.9826677 17.6878624,13.6475342 C17.6485007,13.2655201 17.6406284,12.8733697 17.6784156,12.4913556 C17.7228155,12.0472562 18.0836828,11.7640716 18.5267371,11.7624878 C19.2912971,11.7599537 20.0555423,11.7618543 20.8201023,11.7618543 L21.0493443,11.7618543 L21.0493443,11.5451896 C21.0493443,10.8061855 21.0483997,10.0674982 21.0490295,9.32881089 C21.0496592,8.69433803 21.3897436,8.3509688 22.0170103,8.34938499 C22.2579034,8.34875147 22.4987965,8.34558386 22.7393747,8.35065204 C23.2409991,8.36142192 23.599977,8.72443035 23.6021813,9.23029813 C23.6062749,9.99939453 23.603126,10.7684909 23.6028111,11.5372706 L23.6028111,11.7618543 L23.8056021,11.7618543 C24.5641792,11.7618543 25.3224414,11.760904 26.0810184,11.7618543 C26.6412129,11.7628046 26.9964121,12.1169437 26.9992462,12.6766609 C27.0001909,12.9126481 27.0001909,13.148952 26.9995611,13.3849391 C26.9979866,13.9728481 26.6566427,14.3222358 26.0687376,14.3260369 C25.3287392,14.3301548 24.5881111,14.3266704 23.8477978,14.3266704 L23.6028111,14.3266704 L23.6028111,14.5297144 C23.603126,15.2864571 23.6040707,16.0431998 23.603126,16.8002593 C23.6024962,17.3846839 23.2535948,17.7350219 22.6694685,17.7385062 C22.4405413,17.7394565 22.211929,17.7394565 21.9833168,17.737556 C21.4001351,17.7318542 21.0512337,17.3824666 21.0493443,16.7974085 C21.0468252,16.0523859 21.0493443,15.3076801 21.0493443,14.5629744 L21.0493443,14.3269872 Z" id="Fill-4" fill="#FFFFFF"></path>
                </g>
            </g>
        </g>
    </g>
</svg>