<svg xmlns="http://www.w3.org/2000/svg" viewBox="0 0 92.24 79.91"><defs><style>.cls-1,.cls-2{fill:#f1f2f2;}.cls-1{stroke:#e6e7e8;stroke-miterlimit:10;}</style></defs><g id="Layer_2" data-name="Layer 2"><g id="Layer_1-2" data-name="Layer 1"><path class="cls-1" d="M26,47.56C18.64,43,14.46,36.45,13.71,27.9A24.13,24.13,0,0,1,20.49,8.67a25,25,0,0,1,36.63-.4,24.21,24.21,0,0,1,7,20.9A24.66,24.66,0,0,1,52.06,47.54c1.36.57,2.73,1.08,4,1.72a39,39,0,0,1,19.6,21c.83,2,1.32,4.13,2,6.2a2.21,2.21,0,0,1-.49,2,1.88,1.88,0,0,1-1.82,1q-36.33,0-72.66,0A3.29,3.29,0,0,1,.51,77.71a1.08,1.08,0,0,1,0-.4A39,39,0,0,1,14.27,54.22a37.24,37.24,0,0,1,11.27-6.47C25.68,47.7,25.8,47.64,26,47.56Z"/><path class="cls-2" d="M73.34,46.91H65.73a4.3,4.3,0,0,1-1.19-.12,2.34,2.34,0,0,1-1.87-2,17.81,17.81,0,0,1,0-3.65,2.57,2.57,0,0,1,2.69-2.3c2.43,0,4.86,0,7.29,0h.72V31.13A2.79,2.79,0,0,1,76.42,28c.76,0,1.53,0,2.29,0a2.7,2.7,0,0,1,2.74,2.78c0,2.42,0,4.85,0,7.28v.71h7.87a2.72,2.72,0,0,1,2.92,2.89v2.23a2.72,2.72,0,0,1-2.95,3c-2.36,0-4.71,0-7.06,0h-.78v.65c0,2.39,0,4.77,0,7.16a2.75,2.75,0,0,1-3,3H76.31a2.74,2.74,0,0,1-3-3q0-3.53,0-7.05Z"/></g></g></svg>