<svg xmlns="http://www.w3.org/2000/svg" viewBox="0 0 89.07 72.05"><defs><style>.cls-1{fill:#f1f2f2;}</style></defs><g id="Layer_2" data-name="Layer 2"><g id="Layer_1-2" data-name="Layer 1"><path class="cls-1" d="M24.73,43C17.62,38.79,13.55,32.83,12.82,25A21.29,21.29,0,0,1,19.41,7.46,25.36,25.36,0,0,1,55,7.1c5.47,5.3,7.86,11.71,6.82,19.07S56.71,39.06,50.05,43c1.32.52,2.65,1,3.93,1.57A36.66,36.66,0,0,1,73,63.73c.8,1.83,1.28,3.78,1.93,5.66a1.91,1.91,0,0,1-.48,1.79,1.85,1.85,0,0,1-1.76.87Q37.42,72,2.16,72A3.16,3.16,0,0,1,0,70.49a.83.83,0,0,1,0-.35A35.29,35.29,0,0,1,13.37,49.05a36.88,36.88,0,0,1,10.94-5.91A4.12,4.12,0,0,0,24.73,43Z"/><path class="cls-1" d="M70.72,42.37c-2.53,0-5,0-7.39,0a4.48,4.48,0,0,1-1.16-.11,2.2,2.2,0,0,1-1.81-1.85,15.45,15.45,0,0,1,0-3.33A2.45,2.45,0,0,1,62.94,35h7.78V28c0-1.82,1-2.81,3-2.82.75,0,1.49,0,2.23,0a2.55,2.55,0,0,1,2.66,2.54c0,2.22,0,4.43,0,6.65V35h7.64a2.56,2.56,0,0,1,2.84,2.63v2a2.57,2.57,0,0,1-2.87,2.71c-2.29,0-4.57,0-6.85,0h-.76V43c0,2.18,0,4.36,0,6.54a2.58,2.58,0,0,1-2.88,2.7H73.6a2.59,2.59,0,0,1-2.88-2.71c0-2.15,0-4.29,0-6.44Z"/></g></g></svg>