<?xml version="1.0" encoding="UTF-8"?>
<svg width="17px" height="17px" viewBox="0 0 17 17" version="1.1" xmlns="http://www.w3.org/2000/svg" xmlns:xlink="http://www.w3.org/1999/xlink">
    <title>Group 3</title>
    <defs>
        <polygon id="path-1" points="0 0 17 0 17 17 0 17"></polygon>
    </defs>
    <g id="Page-1" stroke="none" stroke-width="1" fill="none" fill-rule="evenodd">
        <g id="Screen-11" transform="translate(-109.000000, -200.000000)">
            <g id="Job-1" transform="translate(28.000000, 193.000000)">
                <g id="Group-3" transform="translate(81.000000, 7.000000)">
                    <mask id="mask-2" fill="white">
                        <use xlink:href="#path-1"></use>
                    </mask>
                    <g id="Clip-2"></g>
                    <path d="M6.84118467,17 L6.50906849,17 C6.15447059,16.8383812 6.05963865,16.5560082 6.06679192,16.1806685 C6.08539042,15.2074826 6.07537584,14.233275 6.07026636,13.259476 C6.06944885,13.1289142 6.10644148,13.031044 6.18819316,12.9311305 C8.61764861,9.95865313 11.0448559,6.98433688 13.4724719,4.01022496 C13.6870701,3.74726247 13.9006463,3.48368701 14.1146313,3.22031587 C14.031449,3.25075986 13.968909,3.30061444 13.9084127,3.35292089 C10.6904624,6.13640033 7.47189886,8.9192668 4.25742294,11.707037 C4.1556421,11.7950998 4.08124807,11.7991863 3.96720448,11.7517835 C2.81961532,11.2769391 1.67202617,10.8020946 0.520145042,10.3380792 C0.290218452,10.245317 0.100145804,10.1290577 0,9.89510897 L0,9.52978112 C0.0919706361,9.33036279 0.256495885,9.21246896 0.44227657,9.10601717 C1.63176346,8.42521606 2.81757153,7.73869393 4.00481026,7.05380638 C8.00655482,4.74619302 12.0089125,2.43919263 16.0092264,0.128718763 C16.2555034,-0.013693714 16.4944226,-0.0606877881 16.7388602,0.106039014 C16.9896334,0.277260901 17.0317355,0.521221442 16.9812539,0.808906904 C16.827152,1.68422261 16.6851084,2.56158155 16.5395904,3.43832751 C16.2475326,5.19713181 15.9575185,6.95634476 15.6650519,8.71514906 C15.3026876,10.8930179 14.9382795,13.0708868 14.575302,15.2487556 C14.5379006,15.4720796 14.4214045,15.6377848 14.2164122,15.7342248 C14.0398286,15.8169753 13.8638581,15.7934782 13.6870701,15.7209439 C12.3232477,15.1621231 10.9581991,14.60698 9.59560304,14.045503 C9.47767624,13.9970787 9.41534059,14.0138331 9.33501957,14.1125206 C8.64094783,14.9669955 7.94401479,15.8194271 7.23911096,16.6647075 C7.12976809,16.7958823 6.97484867,16.8890531 6.84118467,17" id="Fill-1" fill="#FEFEFE" mask="url(#mask-2)"></path>
                </g>
            </g>
        </g>
    </g>
</svg>