<svg xmlns="http://www.w3.org/2000/svg" viewBox="0 0 83.18 83.2"><defs><style>.cls-1{fill:#f1f2f2;}</style></defs><g id="Layer_2" data-name="Layer 2"><g id="Layer_1-2" data-name="Layer 1"><path class="cls-1" d="M33.47,83.2H31.85c-1.74-.79-2.2-2.17-2.17-4,.09-4.76.05-9.53,0-14.3a2.36,2.36,0,0,1,.58-1.6Q48.12,41.47,65.92,19.63l3.14-3.87a3.19,3.19,0,0,0-1,.65Q44.44,36.84,20.83,57.3a1.16,1.16,0,0,1-1.42.22C13.8,55.19,8.18,52.87,2.54,50.6A4.19,4.19,0,0,1,0,48.43V46.64a4.71,4.71,0,0,1,2.16-2.07q8.73-5,17.43-10Q49,17.59,78.33.63A3,3,0,0,1,83.09,4c-.76,4.28-1.45,8.58-2.16,12.87q-2.15,12.92-4.28,25.82l-5.34,32A3,3,0,0,1,69.56,77,3.09,3.09,0,0,1,67,76.94q-10-4.09-20-8.2a.92.92,0,0,0-1.28.33q-5.09,6.27-10.25,12.49A14.1,14.1,0,0,1,33.47,83.2Z"/></g></g></svg>