<?xml version="1.0" encoding="UTF-8"?>
<svg width="104px" height="17px" viewBox="0 0 104 17" version="1.1" xmlns="http://www.w3.org/2000/svg" xmlns:xlink="http://www.w3.org/1999/xlink">
    <title>Logo</title>
    <defs>
        <polygon id="path-1" points="0.15756 0.318549211 9.92733142 0.318549211 9.92733142 11.3859397 0.15756 11.3859397"></polygon>
        <polygon id="path-3" points="0 15.0588235 103.777093 15.0588235 103.777093 0.161974175 0 0.161974175"></polygon>
    </defs>
    <g id="Page-1" stroke="none" stroke-width="1" fill="none" fill-rule="evenodd">
        <g id="Screen-7" transform="translate(-44.000000, -19.000000)">
            <g id="Logo" transform="translate(44.000000, 19.000000)">
                <polygon id="Fill-1" fill="#FFFFFF" points="4.94768049 0.25 0 14.25 2.03372545 14.25 7 0.25"></polygon>
                <g id="Group-17" transform="translate(0.000000, 0.250000)">
                    <path d="M20.7967067,5.24546571 C21.0736933,5.60944849 21.2605467,6.05643845 21.3565733,6.58606829 C21.41724,6.93719598 21.4470533,7.45103242 21.4470533,8.12721033 L21.4290267,14.7046106 L18.7902,14.7046106 L18.7902,8.05999656 C18.7902,7.66479426 18.7302267,7.33900947 18.6099333,7.08374405 C18.3807867,6.59892339 17.9588933,6.35614577 17.3449467,6.35614577 C16.6339333,6.35614577 16.1427067,6.66870818 15.87196,7.29420029 C15.7332933,7.62622898 15.66396,8.02547145 15.66396,8.49082582 L15.66396,14.7046106 L13.0705467,14.7046106 L13.0705467,8.49082582 C13.0705467,7.87194491 13.0102267,7.42201664 12.8899333,7.14104103 C12.6732667,6.63712138 12.2482533,6.38479426 11.6159333,6.38479426 C10.881,6.38479426 10.387,6.63712138 10.1339333,7.14104103 C9.99526667,7.42826055 9.92593333,7.85615151 9.92593333,8.42397934 L9.92593333,14.7046106 L7.31449333,14.7046106 L7.31449333,4.2883122 L9.81777333,4.2883122 L9.81777333,5.81072253 C10.1367067,5.26823759 10.43796,4.88185022 10.7211867,4.65192769 C11.22108,4.2438703 11.8686533,4.03929067 12.6642533,4.03929067 C13.4168667,4.03929067 14.0256133,4.21522181 14.4894533,4.56598221 C14.8628133,4.89139971 15.14604,5.30974118 15.3387867,5.82027202 C15.67644,5.20726772 16.0948667,4.75770674 16.59476,4.47011994 C17.1248133,4.18290043 17.7151867,4.03929067 18.36588,4.03929067 C18.79956,4.03929067 19.227,4.12890904 19.6488933,4.30741119 C20.0707867,4.48591334 20.45316,4.79884304 20.7967067,5.24546571 Z" id="Fill-2" fill="#FFFFFF"></path>
                    <g id="Group-6" transform="translate(22.880000, 3.672884)">
                        <mask id="mask-2" fill="white">
                            <use xlink:href="#path-1"></use>
                        </mask>
                        <g id="Clip-5"></g>
                        <path d="M3.50012,3.16466686 C3.13612,3.56207288 2.90766667,4.10015036 2.81406667,4.78000115 L7.25070667,4.78000115 C7.20390667,4.05570846 6.97545333,3.50624505 6.56465333,3.13087633 C6.1542,2.75624218 5.64529333,2.56819053 5.03724,2.56819053 C4.37614667,2.56819053 3.86412,2.76689354 3.50012,3.16466686 M7.35262667,0.807777331 C8.03972,1.13392941 8.60721333,1.64850043 9.05476,2.35149039 C9.45828,2.97147317 9.71966667,3.69025653 9.83961333,4.50857504 C9.90894667,4.98825366 9.93737333,5.67875581 9.9242,6.57934692 L2.75062667,6.57934692 C2.79084,7.62648608 3.13404,8.36069555 3.78092,8.78197532 C4.17404,9.04348465 4.64724,9.17423931 5.20086667,9.17423931 C5.78742667,9.17423931 6.26409333,9.01483615 6.63086667,8.69566255 C6.83054667,8.52303702 7.00769333,8.28393228 7.16092,7.97761377 L9.79004,7.97761377 C9.72036,8.59722927 9.40212,9.22565968 8.83532,9.8636396 C7.95305333,10.8780901 6.71788,11.3860499 5.1298,11.3860499 C3.81905333,11.3860499 2.66222667,10.9577917 1.66070667,10.1020098 C0.658493333,9.24622783 0.15756,7.85310301 0.15756,5.92410445 C0.15756,4.11667834 0.609613333,2.73016471 1.51406667,1.76566542 C2.41886667,0.800798852 3.59302667,0.318549211 5.0362,0.318549211 C5.89350667,0.318549211 6.66553333,0.481625251 7.35262667,0.807777331" id="Fill-4" fill="#FFFFFF" mask="url(#mask-2)"></path>
                    </g>
                    <path d="M39.961896,11.87054 C40.341496,11.296101 40.5314693,10.5527093 40.5314693,9.6399977 C40.5314693,8.36367059 40.227096,7.45095897 39.618696,6.90186284 C39.2449893,6.56983415 38.8113093,6.40418709 38.317656,6.40418709 C37.5643493,6.40418709 37.0117627,6.70573085 36.6592027,7.30881836 C36.307336,7.91190588 36.1308827,8.6604396 36.1308827,9.55405222 C36.1308827,10.5174496 36.3097627,11.2883879 36.6685627,11.865398 C37.0266693,12.4435099 37.5705893,12.7318313 38.2992827,12.7318313 C39.0283227,12.7318313 39.5826427,12.4449791 39.961896,11.87054 M39.3292293,4.43662324 C39.793416,4.71429326 40.169896,5.09884419 40.459016,5.58990875 L40.459016,0.612049354 L43.070456,0.612049354 L43.070456,14.7045372 L40.5675227,14.7045372 L40.5675227,13.2585228 C40.200056,13.8781383 39.7812827,14.3280666 39.3115493,14.6086749 C38.8414693,14.8892832 38.257336,15.0299547 37.558456,15.0299547 C36.4078693,15.0299547 35.4396293,14.5370537 34.6533893,13.5505171 C33.8671493,12.5647151 33.4740293,11.2994066 33.4740293,9.75459168 C33.4740293,7.97397762 33.861256,6.57313974 34.635016,5.55207805 C35.4094693,4.53064907 36.4439227,4.02011822 37.7390693,4.02011822 C38.335336,4.02011822 38.8653893,4.15895323 39.3292293,4.43662324" id="Fill-7" fill="#FFFFFF"></path>
                    <mask id="mask-4" fill="white">
                        <use xlink:href="#path-3"></use>
                    </mask>
                    <g id="Clip-10"></g>
                    <path d="M45.44696,14.7047575 L48.0584,14.7047575 L48.0584,4.26936011 L45.44696,4.26936011 L45.44696,14.7047575 Z M45.44696,3.02425251 L48.0584,3.02425251 L48.0584,0.506490674 L45.44696,0.506490674 L45.44696,3.02425251 Z" id="Fill-9" fill="#FFFFFF" mask="url(#mask-4)"></path>
                    <path d="M56.0284053,9.63004419 C55.8630453,9.73912884 55.6962987,9.82691076 55.5292053,9.89375725 C55.3607253,9.96060373 55.1305387,10.0230428 54.8376053,10.0803397 L54.2510453,10.1956683 C53.701232,10.2974072 53.307072,10.4219179 53.0675253,10.5688333 C52.6619253,10.8178548 52.4587787,11.2038749 52.4587787,11.7268935 C52.4587787,12.1933498 52.5828853,12.5294187 52.8304053,12.7365693 C53.078272,12.9440872 53.3795253,13.0483971 53.734512,13.0483971 C54.2974987,13.0483971 54.8157653,12.8761389 55.2896587,12.5312551 C55.763552,12.186004 56.0096853,11.5583082 56.0284053,10.6455966 L56.0284053,9.63004419 Z M54.4534987,8.35738996 C54.932592,8.29311449 55.275792,8.2137802 55.4820587,8.11791793 C55.8526453,7.95190359 56.0377653,7.69333257 56.0377653,7.34220488 C56.0377653,6.91468121 55.895632,6.61974864 55.6113653,6.4566726 C55.3274453,6.29396385 54.910752,6.21242582 54.3609387,6.21242582 C53.7445653,6.21242582 53.3077653,6.37219627 53.0515787,6.69136987 C52.868192,6.9275363 52.7461653,7.2467099 52.685152,7.64852339 L50.2002453,7.64852339 C50.254672,6.73617905 50.4962987,5.98617618 50.9261653,5.39888207 C51.609792,4.47992654 52.7836053,4.02044878 54.4472587,4.02044878 C55.5298987,4.02044878 56.4922453,4.24706571 57.3332587,4.69993228 C58.174272,5.15316614 58.594432,6.00858077 58.594432,7.26544161 L58.594432,12.0526783 C58.594432,12.384707 58.6003253,12.7868878 58.6128053,13.2584861 C58.630832,13.6165923 58.681792,13.8586353 58.766032,13.9864516 C58.8506187,14.114268 58.977152,14.2193125 59.1459787,14.3023197 L59.1459787,14.7045004 L56.3442187,14.7045004 C56.2662187,14.4933096 56.2121387,14.2957085 56.181632,14.1109624 C56.1518187,13.9258491 56.1278987,13.7150255 56.1091787,13.4788591 C55.7524587,13.8872838 55.340272,14.2354732 54.873312,14.5223254 C54.315872,14.860598 53.6859787,15.0299179 52.9832853,15.0299179 C52.0864587,15.0299179 51.3459787,14.759961 50.761152,14.2207816 C50.1763253,13.6819696 49.883392,12.9176425 49.883392,11.9281676 C49.883392,10.6455966 50.3541653,9.71635696 51.294672,9.14191793 C51.810512,8.82972281 52.5690187,8.60604419 53.5705387,8.47198393 L54.4534987,8.35738996 Z" id="Fill-11" fill="#FFFFFF" mask="url(#mask-4)"></path>
                    <path d="M66.7004347,11.87054 C67.0800347,11.296101 67.2693147,10.5527093 67.2693147,9.6399977 C67.2693147,8.36367059 66.965288,7.45095897 66.3565413,6.90186284 C65.983528,6.56983415 65.5495013,6.40418709 65.0555013,6.40418709 C64.3025413,6.40418709 63.7503013,6.70573085 63.3977413,7.30881836 C63.0451813,7.91190588 62.868728,8.6604396 62.868728,9.55405222 C62.868728,10.5174496 63.0479547,11.2883879 63.406408,11.865398 C63.7648613,12.4435099 64.3084347,12.7318313 65.0378213,12.7318313 C65.7665147,12.7318313 66.3208347,12.4449791 66.7004347,11.87054 M66.067768,4.43662324 C66.5319547,4.71429326 66.908088,5.09884419 67.1975547,5.58990875 L67.1975547,0.612049354 L69.808648,0.612049354 L69.808648,14.7045372 L67.3057147,14.7045372 L67.3057147,13.2585228 C66.938248,13.8781383 66.519128,14.3280666 66.0493947,14.6086749 C65.580008,14.8892832 64.995528,15.0299547 64.2963013,15.0299547 C63.1460613,15.0299547 62.1778213,14.5370537 61.3912347,13.5505171 C60.6053413,12.5647151 60.212568,11.2994066 60.212568,9.75459168 C60.212568,7.97397762 60.599448,6.57313974 61.373208,5.55207805 C62.1473147,4.53064907 63.1821147,4.02011822 64.477608,4.02011822 C65.073528,4.02011822 65.603928,4.15895323 66.067768,4.43662324" id="Fill-12" fill="#FFFFFF" mask="url(#mask-4)"></path>
                    <path d="M77.620088,4.02515007 C77.653368,4.02845567 77.7268613,4.03323042 77.841608,4.03910703 L77.841608,6.83490617 C77.6790213,6.81580717 77.5344613,6.80295208 77.4075813,6.79634089 C77.2813947,6.79009699 77.1787813,6.78715868 77.100088,6.78715868 C76.064248,6.78715868 75.368488,7.14453027 75.012808,7.85927346 C74.8145147,8.26182152 74.7150213,8.88033515 74.7150213,9.71665079 L74.7150213,14.704427 L72.121608,14.704427 L72.121608,4.26939684 L74.5794747,4.26939684 L74.5794747,6.0882089 C74.9771013,5.39256471 75.3234213,4.91729354 75.619128,4.66166083 C76.100648,4.23413716 76.726728,4.02037532 77.4977147,4.02037532 C77.546248,4.02037532 77.586808,4.02184448 77.620088,4.02515007" id="Fill-13" fill="#FFFFFF" mask="url(#mask-4)"></path>
                    <path d="M79.3870133,14.7047575 L81.9988,14.7047575 L81.9988,4.26936011 L79.3870133,4.26936011 L79.3870133,14.7047575 Z M79.3866667,3.02425251 L81.9984533,3.02425251 L81.9984533,0.506490674 L79.3866667,0.506490674 L79.3866667,3.02425251 Z" id="Fill-14" fill="#FFFFFF" mask="url(#mask-4)"></path>
                    <polygon id="Fill-15" fill="#FFFFFF" mask="url(#mask-4)" points="90.5600107 4.2692132 93.325024 4.2692132 89.768224 14.7046106 87.052784 14.7046106 83.5205973 4.2692132 86.4124907 4.2692132 88.4633707 11.9661085"></polygon>
                    <path d="M97.3499627,6.83755065 C96.9863093,7.23495667 96.7571627,7.77303415 96.6635627,8.45288494 L101.100549,8.45288494 C101.053403,7.72859225 100.825296,7.17912884 100.414149,6.80376011 C100.004043,6.42912597 99.495136,6.24107432 98.8870827,6.24107432 C98.2259893,6.24107432 97.713616,6.43977733 97.3499627,6.83755065 M101.202816,4.48066112 C101.889909,4.8068132 102.457056,5.32138422 102.904603,6.02437418 C103.308123,6.64435696 103.569856,7.36314032 103.689456,8.18145882 C103.758789,8.66113745 103.786869,9.3516396 103.774043,10.2522307 L96.6004693,10.2522307 C96.640336,11.2993699 96.9842293,12.0335793 97.6307627,12.4548591 C98.0242293,12.7163684 98.4974293,12.8471231 99.0503627,12.8471231 C99.6372693,12.8471231 100.113589,12.6877199 100.480709,12.3685463 C100.680389,12.1959208 100.857189,11.9568161 101.010416,11.6504976 L103.639883,11.6504976 C103.570549,12.2701131 103.252309,12.8985435 102.684816,13.5365234 C101.802896,14.5509739 100.567723,15.0589337 98.979296,15.0589337 C97.6685493,15.0589337 96.5120693,14.6306755 95.509856,13.7748935 C94.5086827,12.9191116 94.0074027,11.5259868 94.0074027,9.59698824 C94.0074027,7.78956212 94.459456,6.40304849 95.3639093,5.43854921 C96.2687093,4.47368264 97.4428693,3.991433 98.8863893,3.991433 C99.7433493,3.991433 100.515723,4.15450904 101.202816,4.48066112" id="Fill-16" fill="#FFFFFF" mask="url(#mask-4)"></path>
                </g>
            </g>
        </g>
    </g>
</svg>