<svg xmlns="http://www.w3.org/2000/svg" viewBox="0 0 360.06 40.56"><defs><style>.cls-1{fill:#f1f2f2;}</style></defs><g id="Layer_2" data-name="Layer 2"><g id="Layer_1-2" data-name="Layer 1"><path class="cls-1" d="M14.9,0h6.18L6.13,39.59H0Z"/><path class="cls-1" d="M56.68,11.29a8.31,8.31,0,0,1,4.93,6.2,25.67,25.67,0,0,1,.26,4.2l-.06,17.9H54.2V21.5a5.87,5.87,0,0,0-.52-2.65,3.71,3.71,0,0,0-3.65-2,4.29,4.29,0,0,0-4.25,2.56,8,8,0,0,0-.6,3.26V39.59H37.7V22.68A9.49,9.49,0,0,0,37.18,19a3.64,3.64,0,0,0-3.67-2.06q-3.18,0-4.28,2.06a7.93,7.93,0,0,0-.6,3.49v17.1H21.1V11.23h7.22v4.15a11.94,11.94,0,0,1,2.61-3.16,8.92,8.92,0,0,1,5.6-1.66A8.86,8.86,0,0,1,41.8,12a8.45,8.45,0,0,1,2.45,3.41,9.46,9.46,0,0,1,3.62-3.67A11.08,11.08,0,0,1,53,10.56,9.83,9.83,0,0,1,56.68,11.29Z"/><path class="cls-1" d="M87.21,11.76A11.6,11.6,0,0,1,92.12,16a14,14,0,0,1,2.26,5.87,35.84,35.84,0,0,1,.25,5.64H73.93q.18,4.28,3,6A7.55,7.55,0,0,0,81,34.54a6.31,6.31,0,0,0,4.13-1.31,6.5,6.5,0,0,0,1.53-1.95h7.58a9.26,9.26,0,0,1-2.75,5.13q-3.83,4.16-10.69,4.15a15.5,15.5,0,0,1-10-3.5q-4.33-3.5-4.34-11.37,0-7.38,3.92-11.32a13.67,13.67,0,0,1,10.16-3.94A16.13,16.13,0,0,1,87.21,11.76ZM76.1,18.18a7.69,7.69,0,0,0-2,4.39h12.8a6.24,6.24,0,0,0-2-4.49,6.54,6.54,0,0,0-4.41-1.53A5.85,5.85,0,0,0,76.1,18.18Z"/><path class="cls-1" d="M113.45,11.64a9,9,0,0,1,3.26,3.14V1.23h7.53V39.59H117V35.66a10.51,10.51,0,0,1-3.62,3.67,10.13,10.13,0,0,1-5.06,1.15,10.55,10.55,0,0,1-8.38-4,15.44,15.44,0,0,1-3.4-10.33q0-7.28,3.35-11.44a10.88,10.88,0,0,1,9-4.18A9.14,9.14,0,0,1,113.45,11.64Zm1.82,20.24a10.35,10.35,0,0,0,1.65-6.08c0-3.47-.88-6-2.64-7.45A5.66,5.66,0,0,0,110.53,17a5.22,5.22,0,0,0-4.78,2.47,11.37,11.37,0,0,0-1.53,6.11,11.33,11.33,0,0,0,1.55,6.29,5.25,5.25,0,0,0,4.71,2.36A5.48,5.48,0,0,0,115.27,31.88Z"/><path class="cls-1" d="M138.63,7.79H131.1V.94h7.53Zm-7.53,3.39h7.53V39.59H131.1Z"/><path class="cls-1" d="M157.08,22.31a11.54,11.54,0,0,0,3-.65,2.23,2.23,0,0,0,1.61-2.11,2.49,2.49,0,0,0-1.23-2.41,7.8,7.8,0,0,0-3.61-.67A4.74,4.74,0,0,0,153,17.78a5.28,5.28,0,0,0-1.05,2.6h-7.17a10.88,10.88,0,0,1,2.09-6.12q3-3.75,10.16-3.76a18.13,18.13,0,0,1,8.32,1.85q3.65,1.86,3.64,7v13c0,.91,0,2,.06,3.29a4,4,0,0,0,.44,2,2.68,2.68,0,0,0,1.09.86v1.09h-8.08a8.92,8.92,0,0,1-.47-1.61c-.08-.51-.15-1.08-.21-1.72a15.4,15.4,0,0,1-3.56,2.84,10.8,10.8,0,0,1-5.45,1.38,9.38,9.38,0,0,1-6.41-2.2A7.83,7.83,0,0,1,143.9,32c0-3.49,1.35-6,4.07-7.58a18.21,18.21,0,0,1,6.56-1.83Zm4.54,3.47a9.67,9.67,0,0,1-1.44.72,12.11,12.11,0,0,1-2,.5l-1.7.32a11.19,11.19,0,0,0-3.41,1,3.4,3.4,0,0,0-1.76,3.16,3.29,3.29,0,0,0,1.08,2.75,4.08,4.08,0,0,0,2.6.84,7.75,7.75,0,0,0,4.49-1.4q2.06-1.41,2.13-5.14Z"/><path class="cls-1" d="M190.58,11.64a9,9,0,0,1,3.26,3.14V1.23h7.53V39.59h-7.22V35.66a10.51,10.51,0,0,1-3.62,3.67,10.13,10.13,0,0,1-5.06,1.15,10.55,10.55,0,0,1-8.38-4,15.44,15.44,0,0,1-3.4-10.33q0-7.28,3.35-11.44a10.88,10.88,0,0,1,9-4.18A9.14,9.14,0,0,1,190.58,11.64Zm1.83,20.24a10.42,10.42,0,0,0,1.64-6.08c0-3.47-.88-6-2.64-7.45A5.66,5.66,0,0,0,187.66,17a5.22,5.22,0,0,0-4.78,2.47,11.37,11.37,0,0,0-1.53,6.11,11.33,11.33,0,0,0,1.55,6.29,5.24,5.24,0,0,0,4.71,2.36A5.51,5.51,0,0,0,192.41,31.88Z"/><path class="cls-1" d="M223.9,10.52l.64,0v7.61c-.47-.05-.88-.09-1.25-.11l-.89,0q-4.47,0-6,2.92a11.38,11.38,0,0,0-.86,5.05V39.59H208V11.18h7.09v4.95a16,16,0,0,1,3-3.88,8.19,8.19,0,0,1,5.42-1.75Z"/><path class="cls-1" d="M236.53,7.79H229V.94h7.53ZM229,11.18h7.53V39.59H229Z"/><path class="cls-1" d="M261.23,11.18h8L259,39.59h-7.84L240.92,11.18h8.35l5.91,21Z"/><path class="cls-1" d="M291.93,11.76a11.6,11.6,0,0,1,4.91,4.2,14,14,0,0,1,2.26,5.87,37.11,37.11,0,0,1,.25,5.64H278.66q.16,4.28,3,6a7.55,7.55,0,0,0,4.09,1.07,6.31,6.31,0,0,0,4.13-1.31,6.5,6.5,0,0,0,1.53-1.95H299a9.26,9.26,0,0,1-2.75,5.13q-3.82,4.16-10.69,4.15a15.5,15.5,0,0,1-10-3.5q-4.33-3.5-4.33-11.37,0-7.38,3.91-11.32a13.69,13.69,0,0,1,10.16-3.94A16.13,16.13,0,0,1,291.93,11.76Zm-11.11,6.42a7.69,7.69,0,0,0-2,4.39h12.8a6.24,6.24,0,0,0-2-4.49,6.52,6.52,0,0,0-4.41-1.53A5.85,5.85,0,0,0,280.82,18.18Z"/><path class="cls-1" d="M303,31.8h7.9v7.79H303Z"/><path class="cls-1" d="M325.57,7.79H318V.94h7.53ZM318,11.18h7.53V39.59H318Z"/><path class="cls-1" d="M356.46,36.12q-3.6,4.44-10.92,4.44t-10.92-4.44A16.45,16.45,0,0,1,331,25.43a16.53,16.53,0,0,1,3.6-10.65q3.6-4.51,10.92-4.51t10.92,4.51a16.53,16.53,0,0,1,3.6,10.65A16.45,16.45,0,0,1,356.46,36.12ZM350.52,32a10.78,10.78,0,0,0,1.74-6.58,10.76,10.76,0,0,0-1.74-6.58,6.62,6.62,0,0,0-10,0,10.69,10.69,0,0,0-1.75,6.58A10.71,10.71,0,0,0,340.49,32a6.58,6.58,0,0,0,10,0Z"/></g></g></svg>