<svg xmlns="http://www.w3.org/2000/svg" viewBox="0 0 85.33 91.67"><defs><style>.cls-1,.cls-2{fill:#f1f2f2;}.cls-1{stroke:#e6e7e8;stroke-miterlimit:10;}</style></defs><g id="Layer_2" data-name="Layer 2"><g id="Layer_1-2" data-name="Layer 1"><path class="cls-1" d="M56.76.87l1.38.8c.35.81.76,1.59,1,2.42a7.42,7.42,0,0,0,3.27,4,77.47,77.47,0,0,1,6.77,4.53A23.44,23.44,0,0,1,77.8,26.7a51.56,51.56,0,0,1,1,12.87c-.23,5.6-.6,11.2-1,16.78A13.59,13.59,0,0,0,81,66.88c.66.75,1.23,1.59,1.85,2.37,2.72,3.43,2.54,9.54.35,12.25a17.69,17.69,0,0,1-5.56,4.43,42,42,0,0,1-14.33,4.45c-17.7,2.4-34.4-.62-49.87-9.68A33.79,33.79,0,0,1,3,71.65c-3.18-4.32-3.44-8.31.13-13.34,1.28-1.81,3.24-2.82,5.1-3.89a14.15,14.15,0,0,0,6.56-8.64c1.78-6,3.61-11.91,5.6-17.8A43.69,43.69,0,0,1,26.48,16,23.06,23.06,0,0,1,37.54,7.69,78.77,78.77,0,0,1,46,5.44a7.89,7.89,0,0,0,5-3.15A3.85,3.85,0,0,1,55.37.62ZM18.83,75.34c1.2.6,3.29,1.7,5.43,2.69a63.06,63.06,0,0,0,17.51,5.13c9.65,1.43,19.21,1.09,28.54-2a33.41,33.41,0,0,0,5.75-2.69c1.39-.77,1.62-1.66.86-3.06a13.57,13.57,0,0,0-2.33-3.18c-3.21-3.18-7.17-5.18-11.28-6.87a91.61,91.61,0,0,0-23.89-5.87,65.9,65.9,0,0,0-21.16.37c-3.05.62-6.07,1.42-8.61,3.34s-2,2.67-.56,4.45a2.88,2.88,0,0,0,.22.27C11.81,70.71,14.84,72.81,18.83,75.34Z"/><path class="cls-2" d="M48,65a7.88,7.88,0,0,1-3.86,5.58C40,73.22,35.47,73.54,30.8,72.7a18.83,18.83,0,0,1-9-4.12,10.69,10.69,0,0,1-3.42-4.89C28.36,62,38.14,63.08,48,65Z"/></g></g></svg>