<svg xmlns="http://www.w3.org/2000/svg" viewBox="0 0 29.68 29.65"><defs><style>.cls-1{fill:#fff;}</style></defs><g id="Layer_2" data-name="Layer 2"><g id="Layer_1-2" data-name="Layer 1"><path class="cls-1" d="M10.78,18.88H3.17A4.3,4.3,0,0,1,2,18.75a2.34,2.34,0,0,1-1.87-2,17.81,17.81,0,0,1,0-3.65,2.56,2.56,0,0,1,2.69-2.3h8V3.1A2.78,2.78,0,0,1,13.86,0c.76,0,1.53,0,2.29,0a2.7,2.7,0,0,1,2.74,2.78c0,2.42,0,4.85,0,7.28v.71h7.87a2.72,2.72,0,0,1,2.92,2.89V15.9a2.73,2.73,0,0,1-3,3c-2.35,0-4.7,0-7,0h-.78v.65c0,2.39,0,4.77,0,7.16a2.74,2.74,0,0,1-3,3H13.75a2.75,2.75,0,0,1-3-3V18.88Z"/></g></g></svg>