<?xml version="1.0" encoding="UTF-8"?>
<svg width="27px" height="28px" viewBox="0 0 27 28" version="1.1" xmlns="http://www.w3.org/2000/svg" xmlns:xlink="http://www.w3.org/1999/xlink">
    <title>Profile Icon</title>
    <defs>
        <polygon id="path-1" points="0 0 27 0 27 27 0 27"></polygon>
    </defs>
    <g id="Page-1" stroke="none" stroke-width="1" fill="none" fill-rule="evenodd">
        <g id="Screen-1" transform="translate(-357.000000, -62.000000)">
            <g id="Main-Buttons-1" transform="translate(0.000000, 52.750000)">
                <g id="Profile-Icon" transform="translate(357.000000, 10.000000)">
                    <mask id="mask-2" fill="white">
                        <use xlink:href="#path-1"></use>
                    </mask>
                    <g id="Clip-2"></g>
                    <path d="M16.8862741,10.2387147 C16.8862741,8.31826619 15.3317117,6.75083456 13.4255951,6.74960808 C11.474423,6.74838305 9.91403714,8.29160606 9.90263924,10.2344245 C9.89166272,12.1588567 11.4716646,13.7345622 13.4124156,13.7339495 C15.3295662,13.7336429 16.8859676,12.167437 16.8862741,10.2387147 M13.3900412,20.2509715 C14.5764984,20.2509715 15.7632622,20.2546488 16.9494129,20.2479071 C17.1608972,20.2466814 17.3775919,20.2246178 17.5823331,20.1752812 C18.0898953,20.0533188 18.5655816,19.856279 18.9505442,19.4879403 C19.0955182,19.3491237 19.2190373,19.1885501 19.2064708,18.9764948 C19.1886939,18.6749596 19.1794989,18.3679085 19.1154407,18.0743406 C18.6753082,16.050316 16.9411374,14.6676666 14.8394745,14.656022 C13.8724704,14.6505061 12.9054664,14.651119 11.9378494,14.6566349 C11.4646151,14.6593928 10.9944458,14.7133259 10.5478769,14.8784962 C8.7551648,15.541935 7.76364085,16.8246855 7.57667652,18.7313442 C7.54204215,19.0858933 7.65636624,19.3613813 7.93098925,19.5725172 C8.48054178,19.9947891 9.09966956,20.2426977 9.79695456,20.2482135 C10.9944458,20.2574067 12.19255,20.2506651 13.3900412,20.2509715 M13.5065108,0 C20.9360441,0.00949958563 26.962119,5.99086771 27,13.4069797 C27.0381307,20.938006 21.0102169,26.9837262 13.4896533,27 C6.1051753,27.0162086 0.0132031452,20.9576181 0,13.5847139 C-0.013768758,6.0628807 5.99606169,0.0183862948 13.5065108,0" id="Fill-1" fill="#FFFFFF" mask="url(#mask-2)"></path>
                </g>
            </g>
        </g>
    </g>
</svg>