<svg xmlns="http://www.w3.org/2000/svg" viewBox="0 0 105.42 101.6"><defs><style>.cls-1{fill:#1b8242;}</style></defs><g id="Layer_2" data-name="Layer 2"><g id="Layer_1-2" data-name="Layer 1"><path class="cls-1" d="M105.42,13.66q-3.7,5.5-7.42,11Q73.22,61.08,48.49,97.53c-3.65,5.41-9.86,5-13.49,1.33q-15-15-30.11-30c-1.17-1.17-2.34-2.34-3.45-3.57a4.75,4.75,0,0,1-.07-6.74c2.79-3,5.67-5.89,8.64-8.69,2.42-2.29,5.09-2.15,7.45.17q9.86,9.69,19.69,19.42a15.68,15.68,0,0,1,1.64,2.5c3.06-4.48,5.55-8.16,8.06-11.83Q66.05,32,85.26,3.82c3.06-4.48,5.49-5,9.92-1.74,3.54,2.57,6.84,5.5,10.24,8.27Z"/></g></g></svg>