<svg width="18" height="16" viewBox="0 0 18 16" fill="none" xmlns="http://www.w3.org/2000/svg">
<path d="M16.5792 0.310398C16.2619 0.153186 15.9129 0.053208 15.5522 0.0161832C15.1915 -0.0208417 14.8262 0.00581236 14.4771 0.0946212C14.128 0.18343 13.8019 0.332652 13.5176 0.533753C13.2333 0.734853 12.9963 0.983888 12.8202 1.26662L7.68882 9.48984L4.75209 6.8747C4.49712 6.63962 4.19213 6.45212 3.85491 6.32312C3.51769 6.19413 3.155 6.12623 2.788 6.12339C2.421 6.12055 2.05704 6.18283 1.71736 6.30658C1.37767 6.43034 1.06907 6.6131 0.809552 6.8442C0.550034 7.0753 0.3448 7.3501 0.205824 7.65259C0.0668488 7.95508 -0.00308477 8.27918 0.000104359 8.60599C0.00329349 8.9328 0.0795416 9.25577 0.224399 9.55606C0.369257 9.85635 0.579823 10.1279 0.843812 10.355L6.37178 15.2776C6.89417 15.744 7.59899 16 8.32592 16L8.70873 15.9754C9.13238 15.9226 9.53649 15.783 9.88925 15.5675C10.242 15.352 10.5338 15.0666 10.7416 14.7337L17.6516 3.65778C17.828 3.37528 17.9402 3.06461 17.9818 2.7435C18.0234 2.42239 17.9935 2.09713 17.8939 1.78629C17.7944 1.47546 17.627 1.18513 17.4014 0.931897C17.1758 0.678662 16.8964 0.467476 16.5792 0.310398Z" fill="#55E422"/>
</svg>
