<?xml version="1.0" encoding="UTF-8"?>
<svg width="36px" height="29px" viewBox="0 0 36 29" version="1.1" xmlns="http://www.w3.org/2000/svg" xmlns:xlink="http://www.w3.org/1999/xlink">
    <title>Upload Icon</title>
    <g id="Page-1" stroke="none" stroke-width="1" fill="none" fill-rule="evenodd">
        <g id="Screen-5" transform="translate(-44.000000, -62.000000)">
            <g id="Main-Buttons-1" transform="translate(0.000000, 52.750000)">
                <g id="Upload-Icon" transform="translate(44.000000, 10.250000)">
                    <path d="M18.6042417,22.1414077 C19.0574095,22.0279934 19.1947703,21.8476616 19.1944637,21.3619594 C19.1935439,19.263324 19.1920108,17.1646886 19.191091,15.0660532 C19.1907844,14.7609971 19.1913976,14.7606829 19.4796099,14.7606829 C20.7551026,14.7603687 22.0305953,14.7581696 23.306088,14.7622537 C23.5992061,14.7635104 23.8242569,14.6544945 23.9349427,14.3748858 C24.0444021,14.0974764 23.96683,13.8530545 23.7595625,13.6409918 C21.6007297,11.4333404 19.4437367,9.22317574 17.2858237,7.01426772 C16.9648043,6.68596323 16.6244685,6.6862774 16.3028359,7.01552439 C14.7851222,8.56782343 13.2686349,10.121065 11.7515345,11.6736782 C11.1150145,12.3252605 10.4778814,12.9759003 9.84166808,13.6277968 C9.50562481,13.9724379 9.51942221,14.4628526 9.88673958,14.6698886 C10.0096897,14.7390054 10.1731122,14.7559704 10.3184448,14.7569129 C11.5786071,14.7631962 12.839076,14.7603687 14.0995448,14.7603687 L14.3871439,14.7603687 L14.3871439,15.0855315 C14.3880637,17.1766269 14.388677,19.2677223 14.39021,21.3585036 C14.3905166,21.8354091 14.5376888,22.0289359 14.980432,22.1417219 C15.0291828,22.1602577 15.0779336,22.1941877 15.1263778,22.1945019 C16.2372216,22.1973294 17.3480653,22.1973294 18.4586025,22.1941877 C18.5073533,22.1941877 18.5557975,22.1599435 18.6042417,22.1414077 M36,19.1511664 L36,20.0738748 C35.9616739,20.3509701 35.9288668,20.6286937 35.8834886,20.9042181 C35.5201572,23.1156395 34.3421661,24.7678436 32.533174,25.9704748 C31.5787007,26.6047779 30.5221267,26.9484766 29.3803155,26.9993717 C22.173475,26.9996858 14.966328,27 7.75918094,27 C7.37285382,26.9525608 6.98100774,26.9324541 6.60111941,26.853284 C5.02177735,26.5234087 3.67821748,25.7386196 2.53763265,24.5818568 C0.386158524,22.3996529 -0.396613806,19.7537387 0.186862788,16.7405632 C0.706871355,14.0541214 2.21906608,12.0632452 4.60570918,10.7987231 C4.78936786,10.7013314 4.85467554,10.6026829 4.83689223,10.3959611 C4.74950871,9.39942342 4.83995832,8.41262494 5.07451407,7.44593315 C5.68987798,4.90683564 7.13737825,2.95962871 9.24929983,1.54619148 C11.5985367,-0.0268425765 14.1875416,-0.357660404 16.8657697,0.36335281 C19.5973477,1.0988177 21.6298576,2.80662939 22.9403037,5.38813945 C23.0565084,5.61716717 23.1613687,5.85247824 23.2665355,6.07459429 C25.3241873,4.597067 27.4315098,4.39474347 29.4030045,6.06925346 C31.4894776,7.84146938 31.6559662,10.0839933 30.4592719,12.5052782 C31.1730573,12.69692 31.8693659,12.9554794 32.499447,13.3676665 C34.2486504,14.5112343 35.3993533,16.0927509 35.8264594,18.194528 C35.8908473,18.5121508 35.9426641,18.8322869 36,19.1511664" id="Fill-1" fill="#FFFFFF"></path>
                    <path d="M15.7910386,21.785951 C16.1158232,21.785951 16.4402596,21.785951 16.7646961,21.785951 C17.1222027,21.785951 17.4793613,21.785951 17.8361718,21.785951 C18.0624418,21.7840673 18.2883638,21.7821836 18.5142857,21.7799859 C18.4592847,21.7985092 18.4039356,21.8327301 18.3489345,21.8330441 C17.0880882,21.8361836 15.8268937,21.8361836 14.5656993,21.8330441 C14.5103502,21.8330441 14.4553491,21.7988231 14.4,21.7806138 C14.5068691,21.7824975 14.613042,21.7843813 14.719911,21.785951 L15.7910386,21.785951 Z" id="Fill-3" fill="#A3A5A8"></path>
                    <path d="M16.4571429,21.8076923 L15.4285714,21.8076923 L16.4571429,21.8076923 Z" id="Fill-5" fill="#A3A5A8"></path>
                    <path d="M17.4857143,21.8076923 C17.1428571,21.8076923 16.8,21.8076923 16.4571429,21.8076923 C16.8,21.8076923 17.1428571,21.8076923 17.4857143,21.8076923" id="Fill-7" fill="#A3A5A8"></path>
                </g>
            </g>
        </g>
    </g>
</svg>