<svg xmlns="http://www.w3.org/2000/svg" viewBox="0 0 60.72 52.21"><defs><style>.cls-1{fill:#f1f2f2;}</style></defs><g id="Layer_2" data-name="Layer 2"><g id="Layer_1-2" data-name="Layer 1"><path class="cls-1" d="M60.72,36.91v1.78c-.06.53-.12,1.07-.2,1.6a14.31,14.31,0,0,1-5.65,9.76,9.48,9.48,0,0,1-5.31,2H13.09a18.91,18.91,0,0,1-2-.29,12.92,12.92,0,0,1-6.85-4.37,17.61,17.61,0,0,1-4-15.12A15.8,15.8,0,0,1,7.77,20.81.7.7,0,0,0,8.16,20a19.72,19.72,0,0,1,.4-5.69A18.75,18.75,0,0,1,15.6,3,13.59,13.59,0,0,1,28.45.7c4.6,1.42,8,4.71,10.24,9.68.2.45.38.9.55,1.33,3.47-2.85,7-3.24,10.35,0,3.52,3.41,3.8,7.73,1.79,12.4a11.27,11.27,0,0,1,3.44,1.66,14.3,14.3,0,0,1,5.61,9.31C60.54,35.68,60.62,36.29,60.72,36.91ZM31.38,42.67c.76-.22,1-.56,1-1.5q0-6.06,0-12.13c0-.59,0-.59.49-.59h6.45a1,1,0,0,0,1.06-.75,1.35,1.35,0,0,0-.29-1.41L29.16,13.52a1,1,0,0,0-1.66,0l-7.68,9L16.6,26.26a1.34,1.34,0,0,0,.08,2,1.28,1.28,0,0,0,.72.17h6.87V41.16c0,.92.25,1.3,1,1.51a.62.62,0,0,0,.24.1h5.62A.6.6,0,0,0,31.38,42.67Z"/><path class="cls-1" d="M49,52.13v.08H13.7v-.08H49Z"/><path class="cls-1" d="M49,52.13H13.7L13.09,52H49.56Z"/><path class="cls-1" d="M27.33,42.68h4.05a.6.6,0,0,1-.25.1H25.51a.62.62,0,0,1-.24-.1h2.06Z"/><path class="cls-1" d="M27.33,42.68h0Z"/><path class="cls-1" d="M30.37,42.68h0Z"/></g></g></svg>