<svg xmlns="http://www.w3.org/2000/svg" viewBox="0 0 89.07 72.05"><defs><style>.cls-1{fill:#f1f2f2;}</style></defs><g id="Layer_2" data-name="Layer 2"><g id="Layer_1-2" data-name="Layer 1"><path class="cls-1" d="M89.07,50.94v2.45c-.1.74-.18,1.48-.29,2.21a19.57,19.57,0,0,1-8.29,13.48,14.4,14.4,0,0,1-7.8,2.73H19.2a27.49,27.49,0,0,1-2.87-.39,19.12,19.12,0,0,1-10-6C1,59.58-1,52.54.46,44.53A21.82,21.82,0,0,1,11.4,28.72,1,1,0,0,0,12,27.65a25.87,25.87,0,0,1,.58-7.85A25.77,25.77,0,0,1,22.88,4.11,20.94,20.94,0,0,1,41.73,1c6.76,2,11.78,6.49,15,13.36.28.61.54,1.24.8,1.83,5.09-3.93,10.31-4.47,15.19,0,5.16,4.72,5.57,10.68,2.61,17.12a16.78,16.78,0,0,1,5,2.29,19.61,19.61,0,0,1,8.23,12.84C88.8,49.24,88.93,50.09,89.07,50.94Zm-43,8c1.12-.3,1.46-.78,1.46-2.07q0-8.37,0-16.75c0-.81,0-.81.71-.81h9.47a1.49,1.49,0,0,0,1.56-1,1.8,1.8,0,0,0-.44-1.95l-16-17.62a1.46,1.46,0,0,0-2.44,0L29.07,31.05c-1.57,1.73-3.15,3.46-4.72,5.2A1.78,1.78,0,0,0,24.46,39a2.15,2.15,0,0,0,1.07.23c3.12,0,6.24,0,9.35,0h.72V56.81c0,1.27.37,1.78,1.46,2.08a1.07,1.07,0,0,0,.36.14h8.25A1.07,1.07,0,0,0,46,58.89Z"/><path class="cls-1" d="M71.8,71.94v.11H20.1v-.11h.61q17.73,0,35.45,0Z"/><path class="cls-1" d="M71.8,71.94H56.16q-17.73,0-35.45,0H20.1l-.9-.13H72.69Z"/><path class="cls-1" d="M40.09,58.91h4.46l1.48,0a1.07,1.07,0,0,1-.36.14H37.42a1.07,1.07,0,0,1-.36-.14l.7,0Z"/><path class="cls-1" d="M40.09,58.91h0Z"/><path class="cls-1" d="M44.55,58.91h0Z"/></g></g></svg>