<svg width="20" height="19" viewBox="0 0 20 19" fill="none" xmlns="http://www.w3.org/2000/svg">
<path fill-rule="evenodd" clip-rule="evenodd" d="M19.0845 0.34092C19.1976 0.448714 19.2874 0.576769 19.3486 0.71775C19.4099 0.85873 19.4414 1.00987 19.4414 1.1625C19.4414 1.31514 19.4099 1.46628 19.3486 1.60726C19.2874 1.74824 19.1976 1.8763 19.0845 1.98409L2.07694 18.2301C1.84883 18.448 1.53945 18.5704 1.21685 18.5704C0.894249 18.5704 0.584863 18.448 0.356752 18.2301C0.12864 18.0122 0.000488284 17.7167 0.000488281 17.4085C0.000488279 17.1004 0.12864 16.8048 0.356752 16.5869L17.3643 0.34092C17.4772 0.232853 17.6112 0.147114 17.7588 0.0886129C17.9064 0.0301123 18.0646 0 18.2244 0C18.3842 0 18.5424 0.0301123 18.69 0.0886129C18.8376 0.147114 18.9717 0.232853 19.0845 0.34092Z" fill="#EF1B1B"/>
<path fill-rule="evenodd" clip-rule="evenodd" d="M0.3569 0.34092C0.243768 0.448714 0.15401 0.576769 0.0927667 0.71775C0.0315238 0.85873 0 1.00987 0 1.1625C0 1.31514 0.0315238 1.46628 0.0927667 1.60726C0.15401 1.74824 0.243768 1.8763 0.3569 1.98409L17.3645 18.2301C17.5926 18.448 17.902 18.5704 18.2246 18.5704C18.5471 18.5704 18.8565 18.448 19.0846 18.2301C19.3128 18.0122 19.4409 17.7167 19.4409 17.4085C19.4409 17.1004 19.3128 16.8048 19.0846 16.5869L2.07709 0.34092C1.96425 0.232853 1.83019 0.147114 1.6826 0.0886129C1.53501 0.0301123 1.37679 0 1.217 0C1.05721 0 0.898983 0.0301123 0.751394 0.0886129C0.603805 0.147114 0.469747 0.232853 0.3569 0.34092Z" fill="#EF1B1B"/>
</svg>
