<svg xmlns="http://www.w3.org/2000/svg" viewBox="0 0 68.75 68.75"><defs><style>.cls-1{fill:#6d6e71;}</style></defs><g id="Layer_2" data-name="Layer 2"><g id="Layer_1-2" data-name="Layer 1"><path class="cls-1" d="M38.73,14.58h6.18L30,54.17H23.83Z"/><path class="cls-1" d="M60.44,68.75H8.31A8.31,8.31,0,0,1,0,60.44V8.31A8.31,8.31,0,0,1,8.31,0H60.44a8.31,8.31,0,0,1,8.31,8.31V60.44A8.31,8.31,0,0,1,60.44,68.75ZM9.19,63.84H59.55a4.3,4.3,0,0,0,4.3-4.29V9.19a4.3,4.3,0,0,0-4.3-4.29H9.19A4.29,4.29,0,0,0,4.9,9.19V59.55A4.29,4.29,0,0,0,9.19,63.84Z"/></g></g></svg>