<svg xmlns="http://www.w3.org/2000/svg" viewBox="0 0 82.12 90.82"><g id="Layer_2" data-name="Layer 2"><g id="Layer_1-2" data-name="Layer 1"><path d="M63.24,0H61.65c-.71.52-1.45,1-2.11,1.57a7.36,7.36,0,0,1-4.85,1.85A75.82,75.82,0,0,0,46.57,4a23.41,23.41,0,0,0-14.46,7.89,51.52,51.52,0,0,0-7.3,10.64c-2.6,5-5.07,10-7.49,15.06a13.57,13.57,0,0,1-8,7.51c-.95.32-1.86.76-2.79,1.13-4.07,1.61-7,7-6.42,10.43a17.49,17.49,0,0,0,2.59,6.62,42.14,42.14,0,0,0,10.19,11C27,85.19,43,90.91,60.88,90.81a33.7,33.7,0,0,0,13.56-2.62C79.35,86,81.57,82.71,81,76.57c-.2-2.21-1.4-4.06-2.46-5.92a14.1,14.1,0,0,1-1.37-10.76c1.44-6,2.83-12.12,4-18.22a43.64,43.64,0,0,0,.67-13.4,23,23,0,0,0-5.41-12.76,80.47,80.47,0,0,0-6.2-6.19,7.8,7.8,0,0,1-2.79-5.24A3.87,3.87,0,0,0,64.57.47ZM58.85,83.45c-1.33-.08-3.69-.17-6-.38a63.27,63.27,0,0,1-17.73-4.31c-9.08-3.6-17.18-8.66-23.73-16a34.37,34.37,0,0,1-3.64-5.2c-.81-1.36-.57-2.25.79-3.09a13.69,13.69,0,0,1,3.61-1.59c4.36-1.14,8.8-.89,13.21-.3a91.32,91.32,0,0,1,23.62,6.86,66.08,66.08,0,0,1,18.14,10.9,20.47,20.47,0,0,1,5.78,7.19c1.24,2.95.41,3.33-1.73,4.14l-.34.13C67.25,83,63.58,83.26,58.85,83.45Z"/><path d="M38.77,59.94a7.92,7.92,0,0,0,.55,6.77c2.26,4.32,6,6.86,10.49,8.47a18.73,18.73,0,0,0,9.84.92,10.71,10.71,0,0,0,5.4-2.52C57.25,67.16,48.26,63.18,38.77,59.94Z"/></g></g></svg>