<svg xmlns="http://www.w3.org/2000/svg" viewBox="0 0 88.09 88.11"><defs><style>.cls-1{fill:#f1f2f2;}</style></defs><g id="Layer_2" data-name="Layer 2"><g id="Layer_1-2" data-name="Layer 1"><path class="cls-1" d="M44.07,0A44.06,44.06,0,1,1,0,44.33,44,44,0,0,1,44.07,0Zm-.38,66.08c3.87,0,7.74,0,11.61,0a9,9,0,0,0,2.07-.23,9.42,9.42,0,0,0,4.46-2.25,2.11,2.11,0,0,0,.83-1.66,18.09,18.09,0,0,0-.29-3A14.09,14.09,0,0,0,48.42,47.83c-3.16,0-6.31,0-9.47,0a13.24,13.24,0,0,0-4.54.72c-5.85,2.17-9.08,6.35-9.69,12.58a2.87,2.87,0,0,0,1.16,2.74A9.87,9.87,0,0,0,32,66.07C35.87,66.11,39.78,66.08,43.69,66.08Zm11.4-32.67A11.39,11.39,0,1,0,43.76,44.82,11.35,11.35,0,0,0,55.09,33.41Z"/></g></g></svg>