<svg xmlns="http://www.w3.org/2000/svg" viewBox="0 0 83.92 82.26"><defs><style>.cls-1{fill:#f1f2f2;}</style></defs><g id="Layer_2" data-name="Layer 2"><g id="Layer_1-2" data-name="Layer 1"><path class="cls-1" d="M42.08,82.23c-1.42,0-2.84,0-4.26,0a1.69,1.69,0,0,1-1.66-.89c-.92-1.78-1.83-3.57-2.67-5.4-.68-1.47-1.24-3-1.88-4.48a1.27,1.27,0,0,0-.59-.6c-.89-.4-1.81-.77-2.73-1.11a1.17,1.17,0,0,0-.76,0c-2.74,1.15-5.45,2.34-8.21,3.45a12.41,12.41,0,0,1-2.64.64,1.23,1.23,0,0,1-.91-.33c-2.2-2.11-4.37-4.24-6.54-6.38A2.07,2.07,0,0,1,9,64.77c.81-2.21,1.69-4.39,2.55-6.58A4.67,4.67,0,0,1,12,57.12c1.45-1.9.4-3.6-.41-5.3-.11-.24-.48-.39-.76-.5C7.93,50.16,5,49,2.11,47.87c-.25-.1-.48-.25-.73-.38A2.31,2.31,0,0,1,0,45.06c.09-2.6.06-5.22,0-7.83a1.93,1.93,0,0,1,1.05-1.92c1.28-.67,2.56-1.32,3.88-1.89,2-.86,4-1.62,6-2.47a1.57,1.57,0,0,0,.73-.71c.35-.69.6-1.43.94-2.13a1.55,1.55,0,0,0,0-1.42c-1.24-2.78-2.45-5.56-3.66-8.35a7.08,7.08,0,0,1-.25-.78,2.37,2.37,0,0,1,.74-2.7c2-1.84,3.92-3.78,5.85-5.71a1.46,1.46,0,0,1,1.46-.49,36.47,36.47,0,0,1,3.74,1.09c2.33.87,4.62,1.85,6.94,2.75a1.31,1.31,0,0,0,.83,0c.84-.3,1.65-.69,2.49-1a1.42,1.42,0,0,0,.89-.94c1.14-2.84,2.3-5.67,3.46-8.49a8.52,8.52,0,0,1,.46-.84A2.33,2.33,0,0,1,37.86,0c2.63.07,5.27.06,7.9,0A2.2,2.2,0,0,1,48,1.27c.9,1.82,1.78,3.66,2.61,5.51.61,1.33,1.12,2.7,1.71,4a1.25,1.25,0,0,0,.6.58c.9.4,1.81.76,2.73,1.1a1.05,1.05,0,0,0,.7,0c2.74-1.15,5.45-2.34,8.21-3.45a11.84,11.84,0,0,1,2.64-.64,1.28,1.28,0,0,1,1,.34c2.19,2.09,4.34,4.21,6.5,6.32a2,2,0,0,1,.28,2.25c-.81,2.23-1.68,4.44-2.55,6.65-.38,1-.85,1.92-1.23,2.9a1.58,1.58,0,0,0,0,.89c.08.35.34.66.41,1,.32,1.62,1.46,2.26,2.91,2.76,2.47.85,4.89,1.89,7.33,2.86.25.1.48.25.73.37a2.33,2.33,0,0,1,1.38,2.43c-.08,2.64,0,5.27,0,7.91a1.8,1.8,0,0,1-1,1.76c-1.3.7-2.62,1.39-4,2-2,.86-4,1.62-6,2.46a1.64,1.64,0,0,0-.73.72c-.35.69-.6,1.43-.93,2.13a1.54,1.54,0,0,0,0,1.43c1.24,2.77,2.45,5.55,3.66,8.34a5.27,5.27,0,0,1,.19.51,2.59,2.59,0,0,1-.72,3c-2,1.83-3.93,3.78-5.86,5.71a1.39,1.39,0,0,1-1.41.46,35.84,35.84,0,0,1-3.67-1.07c-2.33-.87-4.62-1.86-6.94-2.77a1.5,1.5,0,0,0-1,0c-.8.27-1.56.65-2.35.93a1.53,1.53,0,0,0-1,1c-1.13,2.82-2.29,5.62-3.44,8.43-.09.21-.2.41-.31.61a2.46,2.46,0,0,1-2.59,1.5C44.65,82.14,43.36,82.23,42.08,82.23ZM56.59,41.14A14.65,14.65,0,1,0,42,55.5,14.49,14.49,0,0,0,56.59,41.14Z"/></g></g></svg>