<svg xmlns="http://www.w3.org/2000/svg" viewBox="0 0 117.41 86.22"><g id="Layer_2" data-name="Layer 2"><g id="Layer_1-2" data-name="Layer 1"><path d="M117.41,61V63.9c-.12.88-.23,1.76-.38,2.64-1.18,7-5,12.3-10.92,16.12a20.23,20.23,0,0,1-10.29,3.28H25.31c-1.26-.15-2.54-.21-3.78-.47A25.86,25.86,0,0,1,8.28,78.24C1.26,71.3-1.29,62.88.61,53.29A26.29,26.29,0,0,1,15,34.37a1.14,1.14,0,0,0,.76-1.28,28.27,28.27,0,0,1,.77-9.39A30.78,30.78,0,0,1,30.17,4.92c7.66-5,16.1-6.06,24.84-3.76a30.25,30.25,0,0,1,19.81,16c.38.73.72,1.48,1.06,2.19,6.72-4.71,13.59-5.35,20,0,6.8,5.64,7.35,12.78,3.44,20.48a23.55,23.55,0,0,1,17.51,18.11C117.06,58.92,117.23,59.94,117.41,61ZM60.68,70.48c1.48-.36,1.92-.94,1.92-2.48q0-10,0-20c0-1,0-1,.94-1,4.16,0,8.32,0,12.48,0a2,2,0,0,0,2-1.23,2,2,0,0,0-.57-2.34L56.38,22.33a2,2,0,0,0-3.21,0L38.33,37.16q-3.12,3.11-6.23,6.22c-1.1,1.09-1.05,2.66.15,3.31a3,3,0,0,0,1.4.28c4.11,0,8.23,0,12.34,0h.93v1q0,10,0,20a2.15,2.15,0,0,0,1.93,2.5,1.84,1.84,0,0,0,.48.17H60.2A1.51,1.51,0,0,0,60.68,70.48Z"/><path d="M94.65,86.1v.12H26.49v-.13l.81,0H74Z"/><path d="M94.65,86.1,74,86.08H27.3l-.81,0-1.18-.15H95.82Z"/><path d="M52.86,70.49h7.82a1.51,1.51,0,0,1-.48.16H49.34a1.84,1.84,0,0,1-.48-.17l.92,0Z"/><path d="M52.86,70.49h0Z"/><path d="M58.73,70.49h0Z"/></g></g></svg>